<svg xmlns="http://www.w3.org/2000/svg" viewBox="0 0 14 14.5"><path fill="#000" d="M8.4 7.2c0 .1 0 .2-.1.3l-6.8 6.8c-.1.1-.2.1-.3.1-.1 0-.2 0-.3-.1l-.7-.7c-.2-.1-.2-.2-.2-.3 0-.1 0-.2.1-.3l5.7-5.7L.1 1.5C0 1.4 0 1.3 0 1.2c0-.1 0-.2.1-.3L.8.2c.2-.2.3-.2.4-.2.1 0 .2 0 .3.1l6.8 6.8c.1.1.1.2.1.3zm5.6 0c0 .1 0 .2-.1.3l-6.8 6.8c-.1.1-.2.1-.3.1-.1 0-.2 0-.3-.1l-.7-.7c-.1-.1-.1-.2-.1-.3 0-.1 0-.2.1-.3l5.7-5.7-5.8-5.8c-.1-.1-.1-.2-.1-.3 0-.1 0-.2.1-.3l.7-.7c.1-.2.3-.2.4-.2.1 0 .2 0 .3.1l6.8 6.8c.1.1.1.2.1.3z"/></svg>
