<svg xmlns="http://www.w3.org/2000/svg" viewBox="0 0 905.4 894.2"><ellipse cx="452.7" cy="447.1" rx="430.2" ry="424.6" fill="none" stroke="#fff" stroke-width="45" stroke-miterlimit="10"/><path fill="#fff" d="M209 363.5h107.4V686H209zM668.8 392.9c-22.6-24.6-52.4-36.9-89.5-36.9-13.7 0-26.1 1.7-37.3 5-11.2 3.4-20.6 8.1-28.3 14.2s-13.8 11.7-18.4 16.9c-4.3 4.9-8.6 10.7-12.7 17.2v-45.9h-107l.3 15.6c.2 10.4.3 42.5.3 96.3s-.2 124-.7 210.6h107.1v-180c0-11.1 1.2-19.8 3.6-26.4 4.6-11.1 11.4-20.3 20.7-27.8 9.2-7.5 20.7-11.2 34.3-11.2 18.7 0 32.4 6.5 41.2 19.4s13.2 30.8 13.2 53.5v172.5h107.1V501.1c0-47.5-11.3-83.6-33.9-108.2zM263.3 208.2c-18 0-32.6 5.3-43.8 15.8-11.2 10.5-16.8 23.8-16.8 39.9 0 15.8 5.4 29.1 16.3 39.7 10.8 10.6 25.2 15.9 43 15.9h.7c18.2 0 32.9-5.3 44.1-15.9s16.6-23.9 16.4-39.7c-.2-16.1-5.8-29.3-16.6-39.9-10.8-10.5-25.2-15.8-43.3-15.8z"/></svg>
