<?xml version="1.0" encoding="utf-8"?>
<!-- Generator: Adobe Illustrator 24.0.1, SVG Export Plug-In . SVG Version: 6.00 Build 0)  -->
<svg version="1.1" id="Layer_1" xmlns="http://www.w3.org/2000/svg" xmlns:xlink="http://www.w3.org/1999/xlink" x="0px" y="0px"
	 viewBox="0 0 997.5 998.6" style="enable-background:new 0 0 997.5 998.6;" xml:space="preserve">
<path d="M915.8,325.2C893,271.9,860.3,224.1,818.7,183c-41.6-41-90-73.2-143.9-95.7C619,64,559.8,52.2,498.7,52.2
	S378.4,64,322.6,87.3C268.7,109.8,220.3,142,178.7,183s-74.3,88.9-97.1,142.1C58,380.3,46,438.9,46,499.3c0,60.4,12,119,35.6,174.1
	c22.8,53.3,55.5,101.1,97.1,142.1s90,73.2,143.9,95.7c55.8,23.3,115.1,35.1,176.1,35.1c61.1,0,120.3-11.8,176.1-35.1
	c53.9-22.5,102.3-54.7,143.9-95.7c41.6-41.1,74.3-88.9,97.1-142.1c23.6-55.2,35.6-113.8,35.6-174.1
	C951.4,439,939.4,380.3,915.8,325.2z M720.9,396.3c0,159-115.1,342.2-325.7,342.2c-64.7,0-124.8-20.2-175.5-55
	c8.9,1.1,18.1,1.7,27.3,1.7c53.6,0.1,103-19.3,142.2-51.8c-50-1.2-92.3-36.6-106.9-85.2c6.9,1.6,14.1,2.4,21.5,2.4
	c10.4,0,20.5-1.4,30.1-4.1C281.5,534.9,242,485.3,242,426c0-0.6,0-1.1,0-1.6c15.5,9.4,33.1,15.1,51.9,15.9
	C263.2,418.1,243,380.4,243,338c0-22.4,5.7-43.3,15.5-61.2c56.4,74.7,140.8,124.3,236,130.4c-2-9-3-18.2-3-27.7
	c0-66.9,51.3-120.3,114.5-119.3c33,0.5,62.7,15.7,83.6,39.4c26.1-5,50.6-14.6,72.7-28c-8.6,28-26.8,51.2-50.4,65.8
	c23.2-2.6,45.3-8.8,65.8-18c-15.3,23.9-34.7,44.7-57.1,61.4C720.8,385.9,720.9,391.1,720.9,396.3z"/>
</svg>
