<?xml version="1.0" encoding="utf-8"?>
<!-- Generator: Adobe Illustrator 24.0.1, SVG Export Plug-In . SVG Version: 6.00 Build 0)  -->
<svg version="1.1" id="Layer_1" xmlns="http://www.w3.org/2000/svg" xmlns:xlink="http://www.w3.org/1999/xlink" x="0px" y="0px"
	 viewBox="0 0 997.5 998.6" style="enable-background:new 0 0 997.5 998.6;" xml:space="preserve">
<path d="M915.8,325.2C893,271.9,860.3,224.1,818.7,183c-41.6-41-90-73.2-143.9-95.7C619,64,559.8,52.2,498.7,52.2
	S378.4,64,322.6,87.3C268.7,109.8,220.3,142,178.7,183s-74.3,88.9-97.1,142.1C58,380.3,46,438.9,46,499.3c0,60.4,12,119,35.6,174.1
	c22.8,53.3,55.5,101.1,97.1,142.1s90,73.2,143.9,95.7c55.8,23.3,115.1,35.1,176.1,35.1c61.1,0,120.3-11.8,176.1-35.1
	c53.9-22.5,102.3-54.7,143.9-95.7c41.6-41.1,74.3-88.9,97.1-142.1c23.6-55.2,35.6-113.8,35.6-174.1
	C951.4,439,939.4,380.3,915.8,325.2z M386.8,499.2v-80.8h48.4c0,0,0-54,0-66.1c0-12.1-2.5-93,102-93c14,0,45.8,0,73.7,0
	c0,35.1,0,73.1,0,84.1c-20.9,0-43.5,0-54.2,0c-10.8,0-21.6,11.1-21.6,19.4s0,55.3,0,55.3s66.9,0,75.6,0c-3,42.4-9.3,81.1-9.3,81.1
	h-66.7v240.1h-99.5V499.2H386.8z"/>
</svg>
