<?xml version="1.0" encoding="utf-8"?>
<!-- Generator: Adobe Illustrator 24.0.1, SVG Export Plug-In . SVG Version: 6.00 Build 0)  -->
<svg version="1.1" id="Layer_1" xmlns="http://www.w3.org/2000/svg" xmlns:xlink="http://www.w3.org/1999/xlink" x="0px" y="0px"
	 viewBox="0 0 997.5 998.6" style="enable-background:new 0 0 997.5 998.6;" xml:space="preserve">
<style type="text/css">
	.st0{fill:none;}
	.st1{fill:none;stroke:#000000;stroke-width:42.8573;stroke-miterlimit:10;}
	.st2{stroke:#000000;stroke-miterlimit:10;}
</style>
<g>
	<path class="st0" d="M104.4,669.3c-3.5-7.9-6.8-15.9-9.8-24C97.6,653.4,100.9,661.4,104.4,669.3z"/>
	<path class="st0" d="M94.6,645.3c-3-8.1-5.8-16.4-8.3-24.7C88.8,628.9,91.6,637.2,94.6,645.3z"/>
	<path class="st0" d="M113.2,688c-2.3-4.6-4.6-9.3-6.7-14C108.7,678.7,110.9,683.4,113.2,688z"/>
	<path class="st0" d="M84.8,615.5c-1-3.4-1.9-6.7-2.8-10.1C82.9,608.8,83.9,612.2,84.8,615.5z"/>
	<path class="st0" d="M585.4,83.3c3.5,0.7,7,1.5,10.5,2.2C592.4,84.8,588.9,84,585.4,83.3z"/>
	<path class="st0" d="M128.1,715.1c-4.4-7.4-8.6-14.8-12.5-22.5C119.5,700.2,123.7,707.7,128.1,715.1z"/>
	<path class="st0" d="M139.1,732.4c-2.8-4.3-5.6-8.6-8.3-13C133.5,723.8,136.2,728.2,139.1,732.4z"/>
	<path class="st0" d="M69.1,521.1c-0.2-3.6-0.3-7.2-0.4-10.9C68.7,513.9,68.9,517.5,69.1,521.1z"/>
	<path class="st0" d="M78.3,590c-1.9-8.6-3.5-17.3-4.9-26.1C74.8,572.7,76.4,581.4,78.3,590z"/>
	<path class="st0" d="M82,605.4c-0.9-3.4-1.7-6.8-2.5-10.2C80.3,598.6,81.2,602,82,605.4z"/>
	<path class="st0" d="M71.3,548.1c-0.4-3.6-0.8-7.1-1.1-10.7C70.5,540.9,70.9,544.5,71.3,548.1z"/>
	<path class="st0" d="M284.6,867.6c-4.5-2.6-9-5.2-13.4-7.9C275.6,862.5,280.1,865.1,284.6,867.6z"/>
	<path class="st0" d="M147.9,745.1c-2-2.8-4-5.6-5.9-8.4C143.9,739.5,145.9,742.3,147.9,745.1z"/>
	<path class="st0" d="M262.5,854.2c-2.9-1.9-5.7-3.8-8.6-5.7C256.7,850.4,259.6,852.3,262.5,854.2z"/>
	<path class="st0" d="M595.9,85.6c3.5,0.8,6.9,1.6,10.4,2.5C602.8,87.2,599.3,86.4,595.9,85.6z"/>
	<path class="st0" d="M454.7,921.7c-3.6-0.4-7.2-0.8-10.8-1.2C447.5,920.9,451.1,921.3,454.7,921.7z"/>
	<path class="st0" d="M307.5,879.8c-3.1-1.5-6.2-3.1-9.3-4.7C301.3,876.7,304.4,878.2,307.5,879.8z"/>
	<path class="st0" d="M237.2,836.5c-2.7-2.1-5.4-4.2-8.1-6.3C231.7,832.3,234.4,834.4,237.2,836.5z"/>
	<path class="st0" d="M190.9,795.9c-2.4-2.4-4.8-4.9-7.1-7.4C186.1,791,188.5,793.5,190.9,795.9z"/>
	<path class="st0" d="M176.8,781c-2.3-2.5-4.5-5.1-6.8-7.7C172.3,775.9,174.5,778.5,176.8,781z"/>
	<path class="st0" d="M229.1,830.2c-2.7-2.1-5.3-4.3-8-6.5C223.7,825.9,226.4,828,229.1,830.2z"/>
	<path class="st0" d="M198.2,803.1c-2.5-2.4-4.9-4.8-7.3-7.2C193.3,798.3,195.7,800.7,198.2,803.1z"/>
	<path class="st0" d="M217.2,820.4c-3.9-3.3-7.7-6.7-11.5-10.2C209.4,813.6,213.3,817,217.2,820.4z"/>
	<path class="st0" d="M569.5,80.4c3.5,0.6,7.1,1.2,10.6,1.9C576.6,81.6,573.1,81,569.5,80.4z"/>
	<path class="st0" d="M869.3,283.5c1.8,2.9,3.5,5.9,5.2,8.9C872.8,289.4,871.1,286.5,869.3,283.5z"/>
	<path class="st0" d="M824,221.4c3.4,3.9,6.7,7.8,9.9,11.7C830.7,229.2,827.4,225.3,824,221.4z"/>
	<path class="st0" d="M861.1,270.4c1.9,2.9,3.7,5.8,5.5,8.7C864.8,276.2,863,273.3,861.1,270.4z"/>
	<path class="st0" d="M846.5,249.4c2,2.7,4,5.5,6,8.3C850.5,254.9,848.5,252.1,846.5,249.4z"/>
	<path class="st0" d="M904.6,358.2c1.2,3.3,2.3,6.6,3.4,9.9C906.9,364.8,905.7,361.5,904.6,358.2z"/>
	<path class="st0" d="M606.2,88.1c5.2,1.3,10.3,2.7,15.4,4.2C616.5,90.8,611.4,89.4,606.2,88.1z"/>
	<path class="st0" d="M915.4,393.2c0.9,3.4,1.7,6.8,2.5,10.2C917.1,400,916.2,396.6,915.4,393.2z"/>
	<path class="st0" d="M594.9,277.5H402.6c-65.8,0-119.2,53.4-119.2,119.2v205.2c0,65.8,53.4,119.2,119.2,119.2h192.3
		c65.8,0,119.2-53.4,119.2-119.2l0-205.2C714.1,330.9,660.7,277.5,594.9,277.5z M604.5,498.6c-1.3,58.4-47.4,105.8-105.8,105.8
		S393,557,393,498.6c0-58.4,47.4-107.5,105.8-105.8C569.8,394.9,605.8,440.4,604.5,498.6z M629,397.5c-16.4,0-29.7-13.3-29.7-29.7
		c0-16.4,13.3-29.7,29.7-29.7s29.7,13.3,29.7,29.7C658.7,384.2,645.4,397.5,629,397.5z"/>
	<path class="st0" d="M837.1,237.2c3.2,4,6.3,8.1,9.4,12.2C843.5,245.2,840.3,241.2,837.1,237.2z"/>
	<path class="st0" d="M666.2,108.1c3.2,1.3,6.4,2.7,9.6,4.1C672.6,110.8,669.4,109.4,666.2,108.1z"/>
	<path class="st0" d="M680.5,114.4c4.7,2.2,9.4,4.4,14.1,6.8C689.9,118.8,685.2,116.5,680.5,114.4z"/>
	<path class="st0" d="M651.5,102.3c3.3,1.2,6.5,2.5,9.8,3.8C658.1,104.8,654.8,103.5,651.5,102.3z"/>
	<path class="st0" d="M626.6,93.8c3.4,1,6.7,2.1,10,3.2C633.3,95.9,630,94.8,626.6,93.8z"/>
	<path class="st0" d="M694.6,121.2c3.1,1.6,6.2,3.2,9.2,4.8C700.7,124.3,697.6,122.7,694.6,121.2z"/>
	<path class="st0" d="M721.8,136.2c3,1.8,5.9,3.6,8.8,5.4C727.7,139.8,724.7,137.9,721.8,136.2z"/>
	<path class="st0" d="M810.1,206.4c2.4,2.5,4.7,4.9,7,7.5C814.8,211.3,812.5,208.8,810.1,206.4z"/>
	<path class="st0" d="M739.2,147.2c8.6,5.7,16.9,11.7,25.1,18C756.2,159,747.8,152.9,739.2,147.2z"/>
	<path class="st0" d="M768.3,168.4c2.7,2.1,5.3,4.3,8,6.5C773.7,172.7,771,170.6,768.3,168.4z"/>
	<path d="M915.8,325.2C893,271.9,860.3,224.1,818.7,183c-41.6-41-90-73.2-143.9-95.7C619,64,559.8,52.2,498.7,52.2
		S378.4,64,322.6,87.3C268.7,109.8,220.3,142,178.7,183s-74.3,88.9-97.1,142.1C58,380.3,46,438.9,46,499.3c0,60.4,12,119,35.6,174.1
		c22.8,53.3,55.5,101.1,97.1,142.1s90,73.2,143.9,95.7c55.8,23.3,115.1,35.1,176.1,35.1c61.1,0,120.3-11.8,176.1-35.1
		c53.9-22.5,102.3-54.7,143.9-95.7c41.6-41.1,74.3-88.9,97.1-142.1c23.6-55.2,35.6-113.8,35.6-174.1
		C951.4,439,939.4,380.3,915.8,325.2z M283.4,396.7c0-65.8,53.4-119.2,119.2-119.2h192.3c65.8,0,119.2,53.4,119.2,119.2l0,205.2
		c0,65.8-53.4,119.2-119.2,119.2H402.6c-65.8,0-119.2-53.4-119.2-119.2V396.7z"/>
	<path d="M833.9,765.4c-4.3,5.3-8.8,10.5-13.3,15.6C825.2,775.9,829.6,770.7,833.9,765.4z"/>
	<path d="M890.9,674c-2.2,4.7-4.4,9.4-6.7,14C886.5,683.4,888.7,678.7,890.9,674z"/>
	<path d="M866.6,719.5c-2.7,4.4-5.5,8.7-8.3,13C861.2,728.2,863.9,723.8,866.6,719.5z"/>
	<path d="M881.8,692.6c-4,7.6-8.1,15.1-12.5,22.5C873.7,707.7,877.9,700.2,881.8,692.6z"/>
	<path d="M855.4,736.7c-2.9,4.2-5.9,8.4-8.9,12.5C849.6,745.1,852.5,740.9,855.4,736.7z"/>
	<path d="M817.1,784.8c-3.5,3.8-7,7.5-10.6,11.1C810.1,792.3,813.7,788.6,817.1,784.8z"/>
	<path d="M846.5,749.2c-3,4.1-6.2,8.2-9.4,12.2C840.3,757.4,843.5,753.4,846.5,749.2z"/>
	<path d="M806.5,795.9c-2.4,2.4-4.8,4.8-7.3,7.2C801.7,800.7,804.1,798.3,806.5,795.9z"/>
	<path d="M927.2,537.4c-0.3,3.6-0.7,7.1-1.1,10.7C926.5,544.5,926.9,540.9,927.2,537.4z"/>
	<path d="M923.9,564c-1.4,8.8-3,17.5-4.9,26.1C921,581.4,922.6,572.7,923.9,564z"/>
	<path d="M928.8,510.3c-0.1,3.6-0.2,7.3-0.4,10.9C928.5,517.5,928.7,513.9,928.8,510.3z"/>
	<path d="M902.8,645.3c-3,8.1-6.3,16.1-9.8,24C896.5,661.4,899.8,653.4,902.8,645.3z"/>
	<path d="M917.9,595.2c-0.8,3.4-1.6,6.8-2.5,10.2C916.2,602,917.1,598.6,917.9,595.2z"/>
	<path d="M911.1,620.6c-2.5,8.4-5.3,16.6-8.3,24.7C905.8,637.2,908.6,628.9,911.1,620.6z"/>
	<path d="M915.4,605.4c-0.9,3.4-1.8,6.8-2.8,10.1C913.5,612.2,914.5,608.8,915.4,605.4z"/>
	<path d="M636.7,901.6c-3.3,1.1-6.7,2.2-10,3.2C630,903.8,633.3,902.7,636.7,901.6z"/>
	<path d="M606.2,910.5c-3.4,0.9-6.9,1.7-10.4,2.5C599.3,912.2,602.8,911.4,606.2,910.5z"/>
	<path d="M621.6,906.3c-5.1,1.5-10.2,2.9-15.4,4.2C611.4,909.2,616.5,907.8,621.6,906.3z"/>
	<path d="M595.9,913c-3.5,0.8-7,1.5-10.5,2.2C588.9,914.6,592.4,913.8,595.9,913z"/>
	<path d="M661.3,892.5c-3.2,1.3-6.5,2.6-9.8,3.8C654.8,895.1,658.1,893.8,661.3,892.5z"/>
	<path d="M580.1,916.3c-3.5,0.7-7,1.3-10.6,1.9C573.1,917.6,576.6,917,580.1,916.3z"/>
	<path d="M553.5,920.5c-3.6,0.5-7.2,0.9-10.8,1.2C546.3,921.3,549.9,920.9,553.5,920.5z"/>
	<path d="M791.8,810.1c-3.8,3.5-7.6,6.9-11.5,10.2C784.1,817,788,813.6,791.8,810.1z"/>
	<path d="M768.3,830.2c-10.7,8.5-21.9,16.6-33.4,24.1C746.5,846.7,757.6,838.7,768.3,830.2z"/>
	<path d="M776.3,823.7c-2.6,2.2-5.3,4.4-8,6.5C771,828,773.7,825.9,776.3,823.7z"/>
	<path d="M675.7,886.4c-3.2,1.4-6.4,2.8-9.6,4.1C669.4,889.2,672.6,887.8,675.7,886.4z"/>
	<path d="M703.8,872.7c-7.6,4.1-15.4,8-23.3,11.6C688.4,880.6,696.1,876.7,703.8,872.7z"/>
	<path d="M730.6,857c-5.8,3.7-11.7,7.2-17.7,10.6C718.8,864.2,724.8,860.7,730.6,857z"/>
	<path class="st1" d="M498.8,392.8C440.4,391.1,393,440.2,393,498.6c0,58.4,47.3,105.8,105.7,105.8S603.2,557,604.5,498.6
		C605.8,440.4,569.8,394.9,498.8,392.8z"/>
	<circle class="st2" cx="629" cy="367.8" r="29.7"/>
</g>
</svg>
