<svg xmlns="http://www.w3.org/2000/svg" viewBox="0 0 905.4 894.2"><ellipse cx="452.7" cy="447.1" rx="430.2" ry="424.6" fill="none" stroke="#000" stroke-width="45" stroke-miterlimit="10"/><path d="M674.9 344.1c0-5.2-.1-10.4-.3-15.5 22.4-16.7 41.8-37.5 57.1-61.4-20.5 9.2-42.6 15.4-65.8 18 23.6-14.6 41.8-37.8 50.4-65.8-22.1 13.4-46.6 23-72.7 28-20.9-23.7-50.6-38.9-83.6-39.4-63.2-1-114.5 52.4-114.5 119.3 0 9.5 1 18.7 3 27.7-95.2-6.1-179.6-55.7-236-130.4-9.8 17.9-15.5 38.8-15.5 61.2 0 42.4 20.2 80.1 50.9 102.3-18.8-.8-36.4-6.5-51.9-15.9v1.6c0 59.3 39.5 108.9 91.9 120.5-9.6 2.7-19.7 4.1-30.1 4.1-7.4 0-14.6-.8-21.5-2.4 14.6 48.6 56.9 84 106.9 85.2C304 613.7 254.6 633.1 201 633c-9.2 0-18.4-.6-27.3-1.7 50.7 34.8 110.8 55 175.5 55 210.6 0 325.7-183.2 325.7-342.2z"/></svg>
