<?xml version="1.0" encoding="utf-8"?>
<!-- Generator: Adobe Illustrator 24.0.1, SVG Export Plug-In . SVG Version: 6.00 Build 0)  -->
<svg version="1.1" id="Layer_1" xmlns="http://www.w3.org/2000/svg" xmlns:xlink="http://www.w3.org/1999/xlink" x="0px" y="0px"
	 viewBox="0 0 997.5 998.6" style="enable-background:new 0 0 997.5 998.6;" xml:space="preserve">
<path d="M915.8,325.2C893,271.9,860.3,224.1,818.7,183c-41.6-41-90-73.2-143.9-95.7C619,64,559.8,52.2,498.7,52.2
	S378.4,64,322.6,87.3C268.7,109.8,220.3,142,178.7,183s-74.3,88.9-97.1,142.1C58,380.3,46,438.9,46,499.3c0,60.4,12,119,35.6,174.1
	c22.8,53.3,55.5,101.1,97.1,142.1s90,73.2,143.9,95.7c55.8,23.3,115.1,35.1,176.1,35.1c61.1,0,120.3-11.8,176.1-35.1
	c53.9-22.5,102.3-54.7,143.9-95.7c41.6-41.1,74.3-88.9,97.1-142.1c23.6-55.2,35.6-113.8,35.6-174.1
	C951.4,439,939.4,380.3,915.8,325.2z M628.4,512.1c-8.8-12.9-22.5-19.4-41.2-19.4c-13.6,0-25.1,3.7-34.3,11.2
	c-9.3,7.5-16.1,16.7-20.7,27.8c-2.4,6.6-3.6,15.3-3.6,26.4v180H421.5c0.5-86.6,0.7-156.8,0.7-210.6c0-53.8-0.1-85.9-0.3-96.3
	l-0.3-15.6h107v45.9c4.1-6.5,8.4-12.3,12.7-17.2c4.6-5.2,10.7-10.8,18.4-16.9c7.7-6.1,17.1-10.8,28.3-14.2c11.2-3.3,23.6-5,37.3-5
	c37.1,0,66.9,12.3,89.5,36.9c22.6,24.6,33.9,60.7,33.9,108.2v184.8h0H641.6V565.6C641.6,542.9,637.2,525,628.4,512.1z M352.8,355.8
	c-11.2,10.6-25.9,15.9-44.1,15.9H308c-17.8,0-32.2-5.3-43-15.9c-10.9-10.6-16.3-23.9-16.3-39.7c0-16.1,5.6-29.4,16.8-39.9
	s25.8-15.8,43.8-15.8c18.1,0,32.5,5.3,43.3,15.8c10.8,10.6,16.4,23.8,16.6,39.9C369.4,331.9,364,345.2,352.8,355.8z M362.4,415.7
	v322.5H255V415.7H362.4z"/>
</svg>
