<svg xmlns="http://www.w3.org/2000/svg" viewBox="0 0 93.6 40.3"><path d="M90.1 9.9c-3.1-5.7-7.9-7.5-7.9-7.5-5.9-2.7-11.3-.7-11.3-.7-4.2 1.1-7.5 4.4-7.5 4.4-.2-.3-2.6-2.6-4.6-3.5s-3-1.5-7.1-1.7c-4.1-.3-7.5 1.7-7.5 1.7V1.3H20.6S12 1.1 5.7 8.4c-6.4 7.4-3.4 17.5-3.4 17.5s1.4 5.9 7.7 10.4c6.3 4.4 15.3 3 17.2 1.4l.1-.1v1.9h16.8V17.7c.2-3.3 2-4.9 2-4.9 2.1-2.3 5-2.1 5-2.1 3 0 4.6 1.8 4.6 1.8 2.5 2.3 2.2 6.2 2.2 6.2v20.7h10l.2-21.8c.2-2.5 1.1-3.6 1.1-3.6.7-.8 1.8-3 5.9-3.2s6 3.6 6 3.6c.9 1.6.8 4.4.8 4.4l-.1 20.6H92V16.3c-.2-3.4-1.9-6.4-1.9-6.4zM27.2 28.4s-8.9 4.9-14.4-3c0 0-3.7-5.7 1.1-11.9 0 0 2.3-3.3 7-3.3h6.3v18.2zm13.3-.3l-4.9-2.7-4.9 2.6.9-5.5-4-3.9 5.5-.8 2.5-5 2.4 5.1 5.6.8-4.1 3.9 1 5.5z" fill="#fff"/></svg>
