<svg xmlns="http://www.w3.org/2000/svg" viewBox="0 0 17.7 398.4"><path d="M2.8 387.5H.2v10.9h17.4v-3.2h-7.1v-6.5H7.9v6.5H2.8v-7.7zm5.6-22.7H2.7v-2.1c-.1-.9.2-1.9.7-2.7.5-.6 1.3-.9 2-.9.4 0 .8.1 1.2.2.4.1.7.4 1 .7.3.3.5.7.6 1.1.2.5.2 1.1.2 1.6v2.1zm2.7-6c-.2.1-.4.3-.6.5-.2.2-.3.4-.4.6-.2-.6-.4-1.1-.8-1.6-.3-.5-.7-.9-1.1-1.2-.4-.3-.9-.6-1.4-.7-1.2-.4-2.5-.3-3.7.1-.6.3-1.2.7-1.6 1.2-.5.6-.8 1.3-1 2.1-.3 1-.4 2-.4 3v5.3h17.4v-3.2h-6.8v-1.4c0-.2 0-.5.1-.7.1-.2.3-.3.4-.5l5.6-3.6c.4-.2.7-.7.6-1.2v-2.9l-6.3 4.2zm-4.7-39c-.7.2-1.5.5-2.1.8-.7.4-1.2.8-1.8 1.3-.5.5-1 1.1-1.4 1.7-.4.7-.7 1.4-.9 2.1-.2.8-.3 1.6-.3 2.5 0 1.2.2 2.4.7 3.6.4 1 1.1 2 1.9 2.8.8.8 1.8 1.4 2.8 1.8 2.3.8 4.8.8 7.1 0 1-.4 2-1 2.8-1.8.8-.8 1.4-1.7 1.9-2.8.9-2.3.9-4.9 0-7.2-.4-1-1.1-2-1.9-2.8-.8-.8-1.8-1.4-2.8-1.8-1.1-.4-2.3-.6-3.5-.6-.9.1-1.7.2-2.5.4zm5 3.4c.7.2 1.4.6 1.9 1.1.5.5.9 1.1 1.2 1.7.6 1.5.6 3.1 0 4.6-.3.7-.7 1.2-1.2 1.7-.6.5-1.2.9-1.9 1.1-1.7.5-3.5.5-5.1 0-.7-.2-1.4-.6-1.9-1.1-.5-.5-.9-1.1-1.2-1.7-.6-1.5-.6-3.1 0-4.6.3-.7.7-1.2 1.2-1.7.6-.5 1.2-.9 1.9-1.1 1.7-.5 3.5-.5 5.1 0zM.2 283.5v.4c0 .1 0 .2.1.3 0 .1.1.2.2.2.1.1.2.1.3.2l9.6 5.1c.3.1.5.3.8.4l.9.3c-.3.1-.6.2-.8.3s-.5.2-.8.4l-9.6 5.2c-.1.1-.2.1-.3.2l-.2.2c0 .1-.1.2-.1.3v2.8h17.4V297H5.6c-.2 0-.5 0-.8.1l9.9-5.3c.4-.2.7-.7.7-1.1v-.5c0-.5-.3-.9-.7-1.1l-9.9-5.2c.5 0 1 .1 1.5.1h11.2v-3H.2v2.5zm0-57.1v13.7h2.7v-5.2h14.7v-3.2H2.8v-5.2l-2.6-.1zm0-30.5h7.5v8.1H.2v3.2h17.4V204H10v-8.1h7.6v-3.2H.2v3.2zM2.8 161H.2v11h17.4v-11H15v7.7h-4.9v-6.1H7.6v6.1H2.8V161zm6-50.8h1.8c.2 0 .3-.1.4-.2.1-.1.2-.3.2-.5v-2.2h3.1l.6 1.5c.3 1.4.3 2.8-.2 4.2-.3.7-.7 1.3-1.2 1.9-.6.5-1.2.9-2 1.2-.9.3-1.8.4-2.7.4-.9 0-1.7-.1-2.5-.4-.7-.2-1.4-.6-1.9-1.1-.5-.5-1-1.1-1.2-1.8-.3-.7-.4-1.5-.4-2.3 0-.5 0-.9.1-1.4.1-.4.2-.7.3-1.1.1-.3.2-.6.4-.9l.5-.8c.2-.2.2-.5.2-.8-.1-.2-.2-.4-.4-.6l-1.5-.9c-.3.4-.7.8-.9 1.2-.3.5-.5.9-.7 1.4-.2.6-.4 1.1-.5 1.7-.1.7-.2 1.3-.2 2 0 1.3.2 2.5.6 3.7.8 2.1 2.5 3.8 4.6 4.6 1.1.4 2.4.7 3.6.6 1.2 0 2.4-.2 3.6-.7 1.1-.4 2-1.1 2.8-1.9.8-.8 1.4-1.8 1.8-2.9.5-1.2.7-2.5.7-3.8 0-1.1-.1-2.2-.5-3.2-.3-1-.8-2-1.4-2.8h-7l-.1 5.9zm-.4-28.9H2.7v-2.1c-.1-.9.2-1.9.7-2.7.5-.6 1.3-.9 2-.9.4 0 .8.1 1.2.2.4.1.7.4 1 .7.3.3.5.7.6 1.1.2.5.2 1.1.2 1.6v2.1zm2.7-6c-.2.1-.4.3-.6.5-.2.2-.3.4-.4.6-.2-.6-.4-1.1-.8-1.6-.3-.5-.7-.9-1.1-1.2-.4-.3-.9-.6-1.4-.7-1.2-.4-2.5-.3-3.7.1-.6.3-1.2.7-1.6 1.2-.5.6-.8 1.3-1 2.1-.3 1-.4 2-.4 3v5.3h17.4v-3.2h-6.8V80c0-.2 0-.5.1-.7.1-.2.3-.3.4-.4l5.6-3.6c.4-.2.7-.7.6-1.2V71l-6.3 4.3zM11 48.7l-5.7-2.1-.9-.3c-.4-.2-.8-.3-1.2-.4.4-.1.8-.2 1.1-.3.4-.1.7-.2.9-.3l5.8-2.1v5.5zM.2 44.3v3.3l17.4 6.8v-2.5c0-.2-.1-.5-.2-.7-.1-.2-.3-.3-.5-.4l-3.5-1.3v-7.2l3.5-1.3c.2-.1.4-.2.5-.4.1-.2.2-.4.2-.7v-2.5L.2 44.3zm0-41.8v.4c0 .1 0 .2.1.3 0 .1.1.2.2.2.1.1.2.1.3.2l9.6 5.1c.3.1.5.3.8.4l.9.3c-.3.1-.6.2-.8.3-.3.1-.5.2-.8.4L.9 15.3c-.1.1-.2.1-.3.2l-.2.2c0 .1-.1.2-.1.3v2.8h17.4V16H5.6c-.3 0-.5 0-.8.1l9.9-5.3c.4-.2.7-.7.7-1.1v-.5c0-.5-.3-.9-.7-1.1L4.9 2.8c.5 0 1 .1 1.5.1h11.2V0H.2v2.5z" fill-rule="evenodd" clip-rule="evenodd" fill="#be1d82"/></svg>
