<svg xmlns="http://www.w3.org/2000/svg" viewBox="0 0 13 419" width="13" height="419"><path fill-rule="evenodd" fill="#FFF" d="M12.206 78.441a8.353 8.353 0 0 1-1.163 2.395l-2.035-1.044c.102-.102.237-.288.402-.556.165-.268.33-.584.496-.949.165-.365.305-.77.419-1.215.114-.444.171-.9.171-1.368 0-1.3-.416-1.95-1.249-1.95-.262 0-.484.074-.667.222a1.889 1.889 0 0 0-.479.633 6.17 6.17 0 0 0-.376.992c-.114.388-.239.821-.376 1.3a11.12 11.12 0 0 1-.522 1.514c-.188.428-.41.784-.667 1.069a2.496 2.496 0 0 1-.889.642c-.336.142-.738.214-1.206.214-.615 0-1.162-.114-1.641-.343a3.311 3.311 0 0 1-1.197-.949A4.3 4.3 0 0 1 .5 77.637a5.844 5.844 0 0 1-.248-1.728c0-.855.134-1.642.402-2.361a8.793 8.793 0 0 1 .949-1.881l1.915 1.043c-.079.08-.188.225-.325.436-.136.212-.27.468-.402.77-.13.302-.242.63-.333.984a4.304 4.304 0 0 0-.137 1.077c0 .651.12 1.135.359 1.455.24.319.576.478 1.009.478.251 0 .459-.059.624-.179.166-.12.311-.294.437-.522.125-.228.239-.516.342-.864.102-.347.211-.749.324-1.206.16-.593.331-1.131.514-1.616.182-.485.41-.895.684-1.232.273-.336.601-.596.983-.778.382-.183.852-.274 1.411-.274.65 0 1.205.123 1.667.368.462.245.835.576 1.12.992.285.416.494.895.624 1.437a7.22 7.22 0 0 1 .197 1.702 9.17 9.17 0 0 1-.41 2.703zm.273-22.666H.337v-2.361h12.142v2.361zm-.436-21.34a5.934 5.934 0 0 1-1.385 1.865 6.301 6.301 0 0 1-1.975 1.206 6.286 6.286 0 0 1-2.275.427 6.102 6.102 0 0 1-2.325-.453 6.422 6.422 0 0 1-1.967-1.249 5.964 5.964 0 0 1-1.36-1.89 5.62 5.62 0 0 1-.504-2.378c0-.878.179-1.679.539-2.403a6.005 6.005 0 0 1 1.41-1.856 6.487 6.487 0 0 1 1.984-1.198 6.244 6.244 0 0 1 2.258-.427 6.15 6.15 0 0 1 2.317.444 6.29 6.29 0 0 1 1.949 1.232 5.911 5.911 0 0 1 1.351 1.882 5.6 5.6 0 0 1 .505 2.377c0 .89-.174 1.697-.522 2.421zm-1.915-3.952a3.455 3.455 0 0 0-.932-1.112 4.168 4.168 0 0 0-1.308-.684 4.861 4.861 0 0 0-1.48-.231c-.524 0-1.031.083-1.522.248-.49.166-.923.4-1.299.702a3.334 3.334 0 0 0-.898 1.112 3.231 3.231 0 0 0-.334 1.479c0 .571.117 1.078.351 1.523.234.445.542.815.923 1.112.383.296.816.521 1.3.675a4.86 4.86 0 0 0 1.479.231 4.87 4.87 0 0 0 1.522-.239c.491-.16.924-.391 1.3-.693.376-.302.679-.673.906-1.112.229-.439.342-.938.342-1.497 0-.57-.116-1.074-.35-1.514zM.337 8.75l7.97-6.33H.355V.06h12.124v1.916L4.698 8.22h7.781v2.36H.337V8.75zm.317 88.969a8.793 8.793 0 0 1 .949-1.881l1.915 1.043a3.05 3.05 0 0 0-.325.436c-.136.212-.27.468-.402.77-.13.303-.242.631-.333.984a4.311 4.311 0 0 0-.137 1.078c0 .65.12 1.134.359 1.454.24.319.576.479 1.009.479.251 0 .459-.06.624-.18.166-.12.311-.293.437-.522.125-.228.239-.516.342-.864.102-.347.211-.749.324-1.206.16-.592.331-1.131.514-1.616.182-.485.41-.895.684-1.232.273-.336.601-.596.983-.778.382-.182.852-.274 1.411-.274.65 0 1.205.123 1.667.368.462.245.835.576 1.12.992.285.417.494.895.624 1.437a7.22 7.22 0 0 1 .197 1.702c0 .913-.137 1.813-.41 2.703a8.353 8.353 0 0 1-1.163 2.395l-2.035-1.044c.102-.102.237-.288.402-.556.165-.267.33-.584.496-.949.165-.365.305-.77.419-1.215.114-.444.171-.9.171-1.368 0-1.3-.416-1.95-1.249-1.95-.262 0-.484.074-.667.222a1.889 1.889 0 0 0-.479.633 6.17 6.17 0 0 0-.376.992c-.114.388-.239.821-.376 1.3-.16.582-.334 1.087-.522 1.514-.188.428-.41.784-.667 1.069a2.484 2.484 0 0 1-.889.642c-.336.143-.738.214-1.206.214-.615 0-1.162-.114-1.641-.342a3.314 3.314 0 0 1-1.197-.95 4.3 4.3 0 0 1-.727-1.411 5.844 5.844 0 0 1-.248-1.728c0-.855.134-1.642.402-2.361zm11.825 238.684H.337v-8.279h2.07v5.919h2.924v-5.115h1.915v5.115h3.164v-6.073h2.069v8.433zm0-49.026H.337v-8.28h2.07v5.919h2.924v-5.115h1.915v5.115h3.164v-6.073h2.069v8.434zm0-23.966H.337v-4.414c0-.992.16-1.861.479-2.608a5.374 5.374 0 0 1 1.3-1.874 5.387 5.387 0 0 1 1.924-1.129 7.254 7.254 0 0 1 2.351-.376c.924 0 1.759.14 2.506.419.746.28 1.385.682 1.915 1.206a5.43 5.43 0 0 1 1.231 1.89c.291.736.436 1.56.436 2.472v4.414zm-2.069-4.414c0-.581-.103-1.097-.308-1.548a3.178 3.178 0 0 0-.846-1.129 3.775 3.775 0 0 0-1.274-.693 5.13 5.13 0 0 0-1.591-.239c-.581 0-1.117.08-1.607.239a3.61 3.61 0 0 0-1.266.702 3.131 3.131 0 0 0-.821 1.137c-.193.451-.29.961-.29 1.531v2.053h8.003v-2.053zm2.069-39.31H.337v-6.5c0-.422.092-.804.274-1.146.183-.342.419-.633.71-.873.29-.239.621-.424.992-.556a3.337 3.337 0 0 1 2.787.248c.519.297.904.73 1.154 1.301.206-.696.573-1.246 1.103-1.651.531-.405 1.195-.607 1.993-.607.513 0 .963.102 1.351.307.388.206.712.488.975.847.262.359.461.776.598 1.249.137.473.205.978.205 1.514v5.867zm-7.063-5.508a1.4 1.4 0 0 0-.41-1.018c-.274-.279-.65-.419-1.129-.419-.467 0-.838.128-1.111.385a1.25 1.25 0 0 0-.411.949v3.251h3.061v-3.148zm5.062-.359c0-.217-.039-.419-.119-.607a1.448 1.448 0 0 0-.334-.488 1.59 1.59 0 0 0-.504-.325 1.599 1.599 0 0 0-.616-.12c-.216 0-.424.037-.624.112a1.758 1.758 0 0 0-.522.299 1.396 1.396 0 0 0-.35.445 1.237 1.237 0 0 0-.128.564v3.627h3.197v-3.507zm2.001-22.153H8.204l-7.867 4.396v-2.565l5.849-2.994-5.849-3.045v-2.549l7.901 4.414h4.241v2.343zm0-38.985H.337v-5.149c0-.559.117-1.075.351-1.548.234-.473.542-.881.923-1.223.383-.342.816-.61 1.3-.804a3.908 3.908 0 0 1 1.462-.291c.513 0 1.012.091 1.497.274.484.182.915.439 1.291.77.376.33.678.73.906 1.197.228.468.342.981.342 1.54v2.873h4.07v2.361zm-6.139-5.098c0-.433-.177-.795-.53-1.086-.353-.291-.832-.436-1.437-.436-.308 0-.584.046-.829.137a2.015 2.015 0 0 0-.624.359 1.42 1.42 0 0 0-.385.522 1.518 1.518 0 0 0-.128.607v2.634H6.34v-2.737zm6.139-19.723v2.429L.337 125.654v-2.087l12.142-4.618v2.429l-3.027 1.129v4.242l3.027 1.112zm-4.685-4.927l-4.772 1.677 4.772 1.745v-3.422zm4.685 187.143v2.36H.337v-5.371c0-.559.117-1.075.351-1.548.234-.473.542-.881.923-1.223.383-.342.816-.61 1.3-.804a4.042 4.042 0 0 1 3.609.299 3.39 3.39 0 0 1 1.393 1.6l4.566-2.772v2.652l-4.07 2.48v2.327h4.07zm-6.139-2.96c0-.216-.051-.419-.154-.607a1.545 1.545 0 0 0-.419-.487 2.098 2.098 0 0 0-.624-.326 2.445 2.445 0 0 0-.77-.119 2.17 2.17 0 0 0-.786.137c-.24.091-.448.213-.625.367a1.672 1.672 0 0 0-.41.531 1.373 1.373 0 0 0-.145.607v2.857H6.34v-2.96zm6.139 57.341L.337 369.367v-2.532l9.44-3.455-3.882-1.505-5.523 2.035v-2.172l4.018-1.369-4.018-1.368v-2.19l5.523 2.07 3.882-1.54-9.44-3.438v-2.566l12.142 4.944v1.984l-5.096 2.104 5.096 2.104v1.985zM.791 386.636a6.005 6.005 0 0 1 1.41-1.856 6.504 6.504 0 0 1 1.984-1.197 6.245 6.245 0 0 1 2.258-.428c.809 0 1.581.148 2.317.445a6.307 6.307 0 0 1 1.949 1.231 5.911 5.911 0 0 1 1.351 1.882c.337.73.505 1.523.505 2.378 0 .889-.174 1.696-.522 2.42a5.923 5.923 0 0 1-1.385 1.865 6.301 6.301 0 0 1-1.975 1.206 6.287 6.287 0 0 1-2.275.428 6.084 6.084 0 0 1-2.325-.454 6.42 6.42 0 0 1-1.967-1.248 5.98 5.98 0 0 1-1.36-1.891 5.612 5.612 0 0 1-.504-2.377c0-.878.179-1.679.539-2.404zm1.915 3.96c.234.445.542.816.923 1.112.383.297.816.522 1.3.676a4.86 4.86 0 0 0 1.479.231 4.87 4.87 0 0 0 1.522-.24c.491-.159.924-.39 1.3-.692.376-.302.679-.673.906-1.112.229-.439.342-.938.342-1.497 0-.57-.116-1.075-.35-1.514a3.445 3.445 0 0 0-.932-1.112 4.168 4.168 0 0 0-1.308-.684 4.861 4.861 0 0 0-1.48-.231c-.524 0-1.031.083-1.522.248-.49.165-.923.399-1.299.701a3.344 3.344 0 0 0-.898 1.112 3.232 3.232 0 0 0-.334 1.48c0 .57.117 1.078.351 1.522zM.688 411.919c.234-.473.542-.881.923-1.223.383-.342.816-.61 1.3-.804a3.908 3.908 0 0 1 1.462-.291c.513 0 1.012.092 1.497.274.484.182.915.439 1.291.77.376.331.678.73.906 1.197.228.468.342.981.342 1.54v2.874h4.07v2.36H.337v-5.149c0-.558.117-1.075.351-1.548zm1.719 4.337H6.34v-2.737c0-.434-.177-.796-.53-1.087-.353-.291-.832-.436-1.437-.436-.308 0-.584.046-.829.137a2.015 2.015 0 0 0-.624.359c-.171.149-.3.323-.385.522-.086.2-.128.402-.128.607v2.635z"/></svg>
