<svg xmlns="http://www.w3.org/2000/svg" viewBox="0, 0, 16, 526" width="16" height="526"><path fill-rule="evenodd" fill="#FFF" d="M15.022 446.176a.396.396 0 0 1-.316.154.318.318 0 0 1-.154-.047.673.673 0 0 1-.154-.115l-.253-.231a3.41 3.41 0 0 0-.761-.526 2.125 2.125 0 0 0-.483-.176c0 .183-.032.348-.098.496a1.12 1.12 0 0 1-.269.381 1.247 1.247 0 0 1-.402.248c-.154.06-.322.09-.505.09a1.129 1.129 0 0 1-1.064-.736 1.377 1.377 0 0 1-.09-.504c0-.217.038-.407.115-.569.077-.163.183-.296.317-.402.134-.106.288-.185.461-.24.174-.054.358-.081.552-.081a3.3 3.3 0 0 1 .864.124c.302.083.604.204.906.364.302.159.596.358.881.594.285.237.547.506.786.808l-.333.368zm-2.074-114.902a6.096 6.096 0 0 1-.329 1.099c-.142.351-.313.68-.513.988a4.76 4.76 0 0 1-.667.821l-1.103-.676a.718.718 0 0 1-.201-.222.56.56 0 0 1-.081-.291c0-.142.058-.296.175-.462a12 12 0 0 0 .389-.59c.143-.228.273-.495.389-.8.117-.305.176-.671.176-1.099 0-.656-.156-1.163-.466-1.522-.311-.36-.757-.539-1.339-.539-.324 0-.59.081-.795.244a1.966 1.966 0 0 0-.517.645c-.14.268-.258.573-.355.916-.097.342-.202.69-.316 1.043a8.969 8.969 0 0 1-.411 1.044 3.356 3.356 0 0 1-.624.915 2.824 2.824 0 0 1-.962.645c-.385.163-.859.244-1.424.244a3.41 3.41 0 0 1-2.454-1.052 3.849 3.849 0 0 1-.795-1.266c-.199-.501-.299-1.077-.299-1.727 0-.73.114-1.403.342-2.019.228-.616.547-1.14.958-1.574l1.086.573a.803.803 0 0 1 .26.218.482.482 0 0 1 .082.287c0 .12-.044.249-.133.389-.088.14-.187.307-.295.5a4.226 4.226 0 0 0-.295.68c-.088.26-.132.566-.132.92 0 .319.038.599.115.838.077.24.184.441.321.603.136.163.3.284.491.364.191.08.401.119.629.119.29 0 .533-.081.727-.243a2.04 2.04 0 0 0 .495-.646c.137-.268.26-.573.368-.915.109-.342.224-.693.346-1.052.123-.36.266-.71.428-1.052.162-.343.368-.648.616-.916a2.78 2.78 0 0 1 .91-.645c.359-.163.795-.244 1.309-.244.558 0 1.081.095 1.569.286.487.191.912.471 1.274.839.362.367.647.816.855 1.347.208.53.312 1.137.312 1.822 0 .393-.039.781-.116 1.163zm-.021 82.426H.563v-2.301h10.466v-4.944h1.898v7.245zm0-20.861H.563v-7.8h1.83v5.491h3.428v-4.328h1.77v4.328h3.498v-5.491h1.838v7.8zm-9.902-43.561H.563v-1.839h2.462l1.334.188c.251.046.444.12.577.223.134.102.201.273.201.513 0 .211-.067.373-.201.487-.133.114-.326.194-.577.24l-1.334.188zm9.902 19.142H2.452v3.729H.563v-9.759h1.889v3.729h10.475v2.301zm-8.448 99.054l8.448 2.728v2.087L.563 476.121v-1.925a.85.85 0 0 1 .141-.5.676.676 0 0 1 .38-.269l7.397-2.104c.182-.046.38-.09.594-.133l.671-.133a10.74 10.74 0 0 1-.675-.149 7.467 7.467 0 0 1-.59-.176l-7.397-2.429a.808.808 0 0 1-.359-.269.759.759 0 0 1-.162-.492v-.676c0-.199.048-.362.145-.487a.878.878 0 0 1 .376-.282l7.397-2.421c.353-.12.761-.228 1.222-.325a15.41 15.41 0 0 1-1.222-.248l-7.397-2.104a.636.636 0 0 1-.367-.261.819.819 0 0 1-.154-.5v-1.805l12.364 3.84v2.079l-8.448 2.703a5.804 5.804 0 0 1-.753.205c.143.034.277.068.402.102.126.035.243.072.351.112zM.644 493.125a6.214 6.214 0 0 1 .616-1.523c.265-.462.587-.877.966-1.244.379-.368.802-.68 1.27-.937a6.188 6.188 0 0 1 1.522-.586 7.237 7.237 0 0 1 1.727-.201c.906 0 1.746.15 2.518.449.773.3 1.441.723 2.005 1.27a5.775 5.775 0 0 1 1.321 1.976c.317.77.475 1.625.475 2.566 0 .935-.158 1.788-.475 2.557a5.825 5.825 0 0 1-1.321 1.981 5.921 5.921 0 0 1-2.005 1.278 6.834 6.834 0 0 1-2.518.454 6.83 6.83 0 0 1-2.518-.454 5.921 5.921 0 0 1-2.005-1.278A5.827 5.827 0 0 1 .9 497.452c-.316-.769-.474-1.622-.474-2.557 0-.627.073-1.217.218-1.77zm2.039 3.399c.2.482.488.893.864 1.232.376.339.834.6 1.372.783.539.182 1.148.273 1.826.273.678 0 1.287-.091 1.825-.273a3.852 3.852 0 0 0 1.369-.783c.373-.339.659-.75.859-1.232a4.227 4.227 0 0 0 .299-1.629c0-.604-.1-1.147-.299-1.629a3.37 3.37 0 0 0-.859-1.228 3.889 3.889 0 0 0-1.369-.778c-.538-.182-1.147-.274-1.825-.274-.678 0-1.287.092-1.826.274a3.93 3.93 0 0 0-1.372.778 3.347 3.347 0 0 0-.864 1.228 4.234 4.234 0 0 0-.299 1.629c0 .605.1 1.148.299 1.629zm10.244 19.814c0 .182-.03.335-.09.457-.06.123-.161.241-.303.355l-8.243 6.458c.376-.034.724-.051 1.043-.051h7.593v2.027H.563v-1.206c0-.097.004-.181.013-.253a.583.583 0 0 1 .051-.188.633.633 0 0 1 .111-.158c.049-.051.113-.108.192-.171l8.277-6.483c-.199.017-.396.031-.59.042a8.682 8.682 0 0 1-.538.017H.563v-2.027h12.364v1.181z"/><path fill-rule="evenodd" fill="#BE1D82" d="M4.941 293.683h7.986v2.027H.563v-1.736c0-.103.003-.191.008-.266a.723.723 0 0 1 .043-.201.444.444 0 0 1 .111-.162c.052-.048.12-.095.205-.141l6.867-3.704c.182-.097.37-.186.564-.269.194-.083.393-.164.598-.244-.21-.08-.414-.162-.611-.248a7.876 7.876 0 0 1-.569-.274L.93 284.813a.878.878 0 0 1-.205-.145.488.488 0 0 1-.111-.167.723.723 0 0 1-.043-.201 3.986 3.986 0 0 1-.008-.265v-1.736h12.364v2.027H4.941c-.32 0-.664-.017-1.035-.052l7.02 3.738c.337.177.505.448.505.813v.325c0 .365-.168.635-.505.812l-7.046 3.781c.189-.017.374-.032.556-.043a8.48 8.48 0 0 1 .505-.017zM.563 261.831l12.364-4.858v1.779c0 .199-.05.362-.15.487a.92.92 0 0 1-.372.283l-2.522.923v5.124l2.522.923a.82.82 0 0 1 .36.266.74.74 0 0 1 .162.487v1.796L.563 264.174v-2.343zm2.937 1.411c.254.08.474.157.663.231l4.095 1.497v-3.935l-4.113 1.506a9.002 9.002 0 0 1-.649.231c-.251.08-.522.159-.813.239.291.074.563.151.817.231zM.563 241.415h5.181v-.539a1.4 1.4 0 0 0-.089-.539.922.922 0 0 0-.287-.368l-4.318-3.413a1.232 1.232 0 0 1-.38-.449 1.422 1.422 0 0 1-.107-.594v-1.984l5.139 4.165c.313.245.536.499.667.761.068-.188.164-.357.286-.509.123-.151.284-.295.483-.432l5.789-4.293v2.027c0 .274-.038.478-.115.611a.96.96 0 0 1-.338.338l-4.566 3.499a.913.913 0 0 0-.325.376c-.063.142-.094.348-.094.616v.727h5.438v2.301H.563v-2.301zm0-29.201h1.83v5.492h3.428v-4.328h1.77v4.328h3.498v-5.492h1.838v7.801H.563v-7.801zm0-32.45h12.364v2.309H.563v-2.309zm1.889-13.617H.563v-9.759h1.889v3.729h10.475v2.301H2.452v3.729zM.563 124.87h5.318v-5.808H.563v-2.309h12.364v2.309H7.523v5.808h5.404v2.309H.563v-2.309zm0-28.585l12.364-4.858v1.779c0 .2-.05.362-.15.488a.927.927 0 0 1-.372.282l-2.522.924v5.123l2.522.924a.817.817 0 0 1 .36.265.741.741 0 0 1 .162.487v1.796L.563 98.629v-2.344zM3.5 97.696c.254.08.474.157.663.231l4.095 1.497V95.49l-4.113 1.505a9.002 9.002 0 0 1-.649.231c-.251.08-.522.16-.813.239.291.075.563.152.817.231zM.563 74.15c0-.827.097-1.543.29-2.147.194-.604.465-1.103.813-1.497a3.242 3.242 0 0 1 1.248-.877 4.303 4.303 0 0 1 1.591-.286c.598 0 1.147.1 1.646.299.498.2.927.499 1.286.898.36.4.639.9.838 1.501.2.602.3 1.305.3 2.109v1.719h4.352v2.301H.563v-4.02zm1.778 1.719h4.438V74.15c0-.422-.053-.79-.158-1.104a2.108 2.108 0 0 0-.453-.782 1.828 1.828 0 0 0-.719-.466 2.737 2.737 0 0 0-.944-.154c-.331 0-.63.051-.898.154a1.759 1.759 0 0 0-.684.462 2.053 2.053 0 0 0-.432.778c-.1.314-.15.684-.15 1.112v1.719zM.563 51.587c0-.827.097-1.543.29-2.147.194-.604.465-1.104.813-1.497a3.231 3.231 0 0 1 1.248-.877 4.303 4.303 0 0 1 1.591-.286c.598 0 1.147.1 1.646.299.498.2.927.499 1.286.898.36.399.639.9.838 1.501.2.602.3 1.305.3 2.109v1.719h4.352v2.301H.563v-4.02zm1.778 1.719h4.438v-1.719c0-.422-.053-.79-.158-1.104a2.108 2.108 0 0 0-.453-.782 1.828 1.828 0 0 0-.719-.466 2.737 2.737 0 0 0-.944-.154c-.331 0-.63.051-.898.154a1.767 1.767 0 0 0-.684.461 2.065 2.065 0 0 0-.432.779c-.1.313-.15.684-.15 1.112v1.719zM.563 25.243h1.83v5.491h3.428v-4.328h1.77v4.328h3.498v-5.491h1.838v7.801H.563v-7.801zm0-15.216c0-.097.004-.181.013-.252a.583.583 0 0 1 .162-.347c.049-.051.113-.108.192-.171l8.277-6.483a25.23 25.23 0 0 1-.59.043 9.54 9.54 0 0 1-.538.017H.563V.807h12.364v1.18c0 .183-.03.335-.09.458-.06.122-.161.241-.303.355L4.291 9.257c.376-.034.724-.051 1.043-.051h7.593v2.027H.563v-1.206z"/></svg>
