<svg id="Layer_1" xmlns="http://www.w3.org/2000/svg" viewBox="0 0 167.1 106.7"><style>path{fill:#fff;}</style><path d="M0 0v106.7h167.1V0H0zm71.5 4.9v45.7H43.1L69.9 4.9h1.6zm0 65.3v5.6H28.2l3.3-5.6h40zM5.4 4.9h40.3L5.4 75.6V4.9zm156.4 96.9H5.4V80.6h156.4v21.2zm0-69.5c-.6-2.6-1.5-5.2-2.7-7.6-4-6.4-11.1-10.6-19.2-10.7-12.5 0-22.7 10.1-22.8 22.6 0 1.3.1 2.6.3 3.8 0-3.8 2.2-7 5.4-8.5 3-1.7 6.4-2.7 10-2.8 12.6-.6 23.3 9.2 23.9 21.7.3 5.9-1.7 11.4-5.3 15.7 5-4.7 8.6-10.9 10.3-17.8v27h-27.9c3.1-.6 6-1.6 8.7-2.9 6.4-4 10.6-11.1 10.7-19.2 0-12.5-10.1-22.7-22.6-22.8-1.3 0-2.6.1-3.8.3 3.8 0 7 2.2 8.5 5.4 1.7 3 2.7 6.4 2.9 10 .6 12.6-9.1 23.3-21.7 23.9-5.9.3-11.4-1.7-15.7-5.3 5 5.3 11.6 9 19 10.5H91.1V44.2c.4 4.3 1.6 8.4 3.5 12.2 4 6.4 11.1 10.6 19.2 10.7 12.5 0 22.7-10.1 22.8-22.6 0-1.3-.1-2.6-.3-3.8 0 3.8-2.2 7-5.4 8.5-3 1.7-6.4 2.7-10 2.8-12.6.6-23.3-9.2-23.9-21.7-.3-5.9 1.7-11.4 5.3-15.7-6.1 5.8-10.1 13.6-11 22.4V4.9h32.1c-4.3.4-8.4 1.6-12.2 3.5-6.4 4-10.6 11.1-10.7 19.2 0 12.5 10.1 22.7 22.6 22.8 1.3 0 2.6-.1 3.8-.3-3.8 0-7-2.2-8.5-5.4-1.7-3-2.7-6.4-2.8-10-.6-12.6 9.1-23.3 21.7-23.9 5.9-.3 11.4 1.7 15.6 5.3-5.8-6.1-13.6-10.1-22.4-11h31.3v27.2z"/><path class="st0" d="M126.9 48.5c4.4 0 7.9-3.5 7.9-7.9s-3.5-7.9-7.9-7.9-7.9 3.5-7.9 7.9 3.5 7.9 7.9 7.9z"/><path d="M24.1 83.8h-9.2l-6.8 15h6.3l1.1-2.6h8.1l1.2 2.6H31l-6.9-15zm-7.3 9.5l2.8-6.5 2.8 6.5h-5.6z"/><path class="st0" d="M41.6 98.8h-6V87.3h-5.8v-3.5h17.9v3.5h-6.1zM54.9 95.3h9.5v3.5H48.9v-15h6z"/><path d="M80.6 83.8h-9.2l-6.8 15h6.3l1.1-2.6h8.1l1.2 2.6h6.2l-6.9-15zm-7.3 9.5l2.8-6.5h.1l2.8 6.5h-5.7z"/><path class="st0" d="M94.1 98.8h-6v-15h10.2l6.5 11.5h.2l-.3-11.5h6v15h-10.3L94 87.3h-.2zM123.6 98.8h-6.1V87.3h-5.8v-3.5h18v3.5h-6.1zM137 98.8h-6v-15h6zM159.3 93.1v.4c0 1.6 0 3.1-2.1 4.3-2.1 1.1-4.6 1.1-7.2 1.1-6.2 0-10.7-.2-10.7-5.7v-3.8c0-5 4-5.7 10.7-5.7 6.2 0 9.1.4 9.3 4.9v.6h-6.2v-.6c-.2-1.3-1.6-1.4-3.7-1.4-3.4 0-3.8.7-3.8 2.8v2.3c0 2.2.1 3.1 3.8 3.1 2.5 0 3.7-.1 3.7-1.9v-.4h6.2z"/><path d="M157.7 6.7c-1.1 0-1.9.8-1.9 1.9s.8 1.9 1.9 1.9c1 0 1.9-.8 1.9-1.9s-.9-1.9-1.9-1.9zm1.2 3.2h-.6l-.6-1.1h-.5v1.1h-.6V7.3h1.3c.6 0 1 .1 1 .8 0 .5-.3.7-.7.7l.7 1.1z" fill="none"/><path d="M157.7 6.2c-1.3 0-2.4 1.1-2.4 2.4s1.1 2.4 2.4 2.4c1.3 0 2.4-1.1 2.4-2.4s-1.1-2.4-2.4-2.4zm0 4.3c-1.1 0-1.9-.8-1.9-1.9s.8-1.9 1.9-1.9c1 0 1.9.8 1.9 1.9s-.9 1.9-1.9 1.9z"/><path d="M159 8.1c0-.7-.4-.8-1-.8h-1.4v2.6h.5V8.8h.5l.6 1.1h.6l-.6-1.1c.5 0 .8-.2.8-.7zm-1 .3h-.8v-.7h.6c.3 0 .6 0 .6.3 0 .4-.1.4-.4.4z"/></svg>
