<svg id="Layer_1" xmlns="http://www.w3.org/2000/svg" viewBox="0 0 166.9 76.3"><style>.st0{fill:#010101}</style><path class="st0" d="M37.6 60.8h6.9v15.5h2.9V60.8h7v-2.6H37.6zM78.8 71.1c0 .7-.3 1.3-.8 1.8s-1.2.7-2 .7h-2.8c-.4 0-.8-.1-1.1-.2s-.6-.3-.9-.6-.5-.5-.6-.8c-.2-.3-.2-.6-.2-.9V58.2h-2.8v12.9c0 .7-.3 1.3-.8 1.8s-1.2.7-2 .7H62c-.8 0-1.4-.3-2-.7-.5-.5-.8-1.1-.8-1.8V58.2h-2.8v12.9c0 .7.2 1.4.5 2 .3.6.7 1.2 1.2 1.6.5.5 1.1.8 1.8 1.1.7.3 1.4.4 2.2.4h2.8c.8 0 1.6-.2 2.3-.5.7-.3 1.3-.8 1.8-1.3.5.6 1.1 1 1.9 1.3.7.3 1.5.5 2.3.5H76c.8 0 1.5-.1 2.2-.4.7-.3 1.3-.6 1.8-1.1.5-.5.9-1 1.2-1.6.3-.6.4-1.3.4-2V58.2h-2.8v12.9zM15.2 59.7c-.5-.5-1.1-.8-1.8-1.1s-1.4-.4-2.2-.4H5.6c-.8 0-1.5.1-2.2.4-.7.3-1.3.6-1.8 1.1-.5.5-.9 1-1.2 1.6-.2.7-.4 1.4-.4 2.1v12.9h2.8V63.4c0-.7.3-1.3.8-1.8s1.2-.8 2-.8h5.6c.8 0 1.5.3 2 .8s.8 1.1.8 1.8v12.9h2.8V63.4c0-.7-.1-1.4-.5-2-.2-.6-.6-1.2-1.1-1.7M22.2 58.6c-.7.3-1.3.6-1.8 1.1-.5.5-.9 1-1.2 1.6-.3.6-.5 1.3-.5 2 0 .8.2 1.5.5 2.2.3.7.8 1.2 1.4 1.7-.6.5-1.1 1.1-1.4 1.7-.3.7-.5 1.4-.5 2.1 0 .7.1 1.4.5 2 .3.6.7 1.2 1.2 1.6.5.5 1.1.8 1.8 1.1.7.3 1.4.4 2.2.4h11.2v-2.6H24.4c-.8 0-1.5-.3-2-.7-.5-.5-.8-1.1-.8-1.8s.3-1.3.8-1.8 1.2-.8 2-.8h11.2V66H24.4c-.8 0-1.5-.3-2-.8s-.8-1.1-.8-1.8.3-1.3.8-1.8 1.2-.8 2-.8h11.2v-2.6H24.4c-.8 0-1.5.2-2.2.4M135.1 63.4c0 .7-.3 1.3-.8 1.8-.6.5-1.2.8-2 .8h-8.4v-7.7h-2.8v18h2.8v-7.7h8.4c.8 0 1.4.3 2 .8.5.5.8 1.1.8 1.8v5.1h2.8v-5.1c0-.8-.2-1.5-.5-2.1-.3-.7-.8-1.2-1.4-1.7.6-.5 1.1-1 1.4-1.7.3-.7.5-1.4.5-2.2v-5.2h-2.8v5.1zM143.3 58.6c-.7.3-1.3.6-1.8 1.1-.5.5-.9 1-1.2 1.6-.3.6-.4 1.3-.4 2s.1 1.4.4 2 .7 1.2 1.2 1.6c.5.5 1.1.8 1.8 1.1.7.3 1.4.4 2.2.4h5.6c.8 0 1.4.3 2 .8.5.5.8 1.1.8 1.8s-.3 1.3-.8 1.8-1.2.7-2 .7h-11.2v2.6h11.2c.8 0 1.5-.1 2.2-.4s1.3-.6 1.8-1.1c.5-.5.9-1 1.2-1.6.3-.6.4-1.3.4-2s-.1-1.4-.4-2c-.3-.6-.7-1.2-1.2-1.6s-1.1-.8-1.8-1.1c-.7-.3-1.4-.4-2.2-.4h-5.6c-.8 0-1.4-.3-2-.8-.5-.5-.8-1.1-.8-1.8s.3-1.3.8-1.8 1.2-.8 2-.8h11.2v-2.6h-11.2c-.8.1-1.5.3-2.2.5M118.6 65.5c.3-.7.5-1.4.5-2.2 0-.7-.2-1.4-.4-2-.3-.6-.7-1.2-1.2-1.6-.5-.5-1.1-.8-1.8-1.1s-1.4-.4-2.2-.4h-5.6c-.8 0-1.5.1-2.2.4-.7.3-1.3.6-1.8 1.1-.5.5-.9 1-1.2 1.6-.3.6-.4 1.3-.4 2v12.9h2.8v-7.7h8.4c.8 0 1.4.3 2 .8s.8 1.1.8 1.8v5.1h2.8v-5.1c0-.8-.2-1.5-.5-2.1-.3-.7-.8-1.2-1.4-1.7.6-.5 1.1-1.1 1.4-1.8m-3.1-.3c-.5.5-1.2.8-2 .8h-8.4v-2.6c0-.7.3-1.3.8-1.8.6-.5 1.2-.8 2-.8h5.6c.8 0 1.4.3 2 .8s.8 1.1.8 1.8-.2 1.3-.8 1.8m-16.8-5.4c-.5-.5-1.1-.8-1.8-1.1s-1.4-.4-2.2-.4h-5.6c-.8 0-1.5.1-2.2.4-.7.3-1.3.6-1.8 1.1-.5.5-.9 1-1.2 1.6-.3.6-.4 1.3-.4 2v7.7c0 .7.2 1.4.4 2 .3.6.7 1.2 1.2 1.6.5.5 1.1.8 1.8 1.1s1.4.4 2.2.4h5.6c.8 0 1.5-.1 2.2-.4.7-.3 1.3-.6 1.8-1.1.5-.5.9-1 1.2-1.6.3-.6.4-1.3.4-2v-7.7c0-.7-.2-1.4-.4-2-.3-.6-.7-1.2-1.2-1.6m-1.1 11.3c0 .7-.3 1.3-.8 1.8s-1.2.7-2 .7h-5.6c-.8 0-1.4-.3-2-.7-.5-.5-.8-1.1-.8-1.8v-7.7c0-.7.3-1.3.8-1.8s1.2-.8 2-.8h5.6c.8 0 1.4.3 2 .8s.8 1.1.8 1.8v7.7zM166.9 20.5h-21.1L139.3 0l-6.5 20.4h-21.1l17.1 12.2-6.6 19.9 17-12.3 17.1 12.3-6.6-19.9 17.2-12.1zm-27.6 13.6l-7.4 5.4 2.9-8.7-7.4-5.3h9.2l2.8-9.2 2.8 9.2h9.2l-7.4 5.3 2.9 8.7-7.6-5.4z"/><path class="st0" d="M131.4 0H68.2c-5.8 0-9.2.8-12.1 2.5-2.4 1.5-4.6 3.6-6.3 6.1-1.2 1.7-2.2 3.4-2.9 5.3v-.1c0-6.9-4.4-12.4-10.7-13.3-1.6-.3-4.4-.5-6.4-.5H0v52.7h29.1c7.6 0 10.9-.9 13.7-3.5 2.6-2.4 4-6.1 4-10.4v-.4c2.2 6.2 6 10.7 11.1 12.4 3.6 1.3 8.1 1.8 14.7 1.8h12.1V39.1H76c-10.5 0-14 .9-15.8-6.7h24.5V20.5H60.1s1.2-6.9 8.5-6.9H92.8v39.1H108V13.5h19.2L131.4 0zM12.9 13.6h16.5c4.1 0 3.9 3.4 3.9 3.4 0 3.6-3.9 3.4-3.9 3.4H12.9v-6.8zm20.4 22.1c0 3.6-3.9 3.4-3.9 3.4H13v-6.8h16.5c4 0 3.8 3.4 3.8 3.4m5.9-9.3c2.5-1 4.5-3.1 5.9-5.6-.2 1.6-.3 3.3-.3 5.2 0 2.1.1 4 .4 5.9-1.2-2.5-3.2-4.3-6-5.5"/></svg>
