<svg xmlns="http://www.w3.org/2000/svg" viewBox="0 0 153.4 146.2"><path d="M113.7 141.6c-.8-.3-1.4-.6-1.9-1.1-.5-.5-1.4-2.1-2.7-4.8-.6-1.1-1.1-2.2-1.6-3.3 4.2-1.4 8.2-3.2 12.2-5.2l3.5-8.7-1.6-2c-3.1 2.2-6.3 4.1-9.7 5.7-2.2 1-4.8 1.9-7.7 2.7l-2.1-4.9-25.8-60.7h-3.9l-9.3 21.9L46.9 118c-7.6-4.9-13.8-11.3-18.4-19.4-5.4-9.4-8.1-20.3-8.1-32.7 0-12.4 2.3-22.8 6.9-31.3 4.6-8.5 11-15.1 19.4-19.6 8.3-4.5 17.7-6.8 28.2-6.8 6.9 0 13.7 1 20.1 3 6.4 2 11.9 4.8 16.4 8.4l.9 15.8.7.8h4.4l.6-.8c1.2-13.7 2.6-22.3 4-25.8l-.6-.9c-5.4-2.4-12.1-4.5-20.2-6.2C93.1.9 85 0 76.7 0 62.4 0 49.6 2.6 38.1 7.9 26.7 13.1 17.4 21 10.5 31.6 3.5 42.2 0 54.6 0 68.7c0 20.5 7 37.2 21 49.9 5.9 5.3 12.5 9.5 19.8 12.6l-.5 1.1c-2 4.4-3.4 6.9-4 7.7-.7.8-1.4 1.3-2.3 1.6-.8.3-2.7.4-5.7.4l-.5.5v3.1l.5.5c4.5-.3 9-.5 13.4-.5 3.9 0 8.5.2 13.7.5l.5-.5v-3.1l-.5-.5c-4.4 0-7.1-.3-8.2-.8-1.1-.5-1.6-1.2-1.6-2.3 0-1.2.5-3 1.5-5.5 8.6 2.8 18.1 4.2 28.6 4.2 7.1 0 13.9-.7 20.6-2.2l.1.3c.6 1.4.8 2.6.8 3.5 0 1.1-.6 1.8-1.7 2.1-1.1.3-3.9.5-8.5.6l-.5.5v3.1l.5.5c6.7-.2 13.4-.3 20.1-.5 3.4 0 7.3.2 11.6.5l.5-.5v-3.1l-.5-.5c-2.6.1-4.2 0-5-.3zM71.4 75.7l15.2 36.5H55.9l15.5-36.5zm11.9 52.1c-11.7 0-22-2.3-31-6.7l1.6-3.6h35l3.9 9.8c-3 .3-6.2.5-9.5.5zm58.2-63.9c0-2.9.1-5.2.3-6.8.2-1.6.7-2.7 1.4-3.1.7-.4 1.8-.7 3.3-.9 1.5-.2 3.7-.3 6.4-.4l.5-.4v-3l-.5-.4c-10.2.3-16 .5-17.4.5h-2l4.8-11.7c2.4-5.4 3.9-8.6 4.3-9.6.5-.9 1-1.5 1.6-1.9.6-.3 2.4-.5 5.3-.7l.5-.5v-2.9l-.5-.5c-6.6.3-10.6.5-12.2.5-1.9 0-6.4-.2-13.5-.5l-.5.5V25l.5.5c4.9.4 7.9.8 8.9 1 1 .3 1.5.9 1.5 1.9 0 1.2-1.1 4.8-3.1 10.8-1.4 4.1-2.6 7.3-3.6 9.9-.5 0-1.1 0-1.6-.1l-7.6-.2-.5.4v3l.5.4c3.8.1 6.3.3 7.6.6L110.3 92l-19-47.9c-1-2.6-2.2-5.8-3.4-9.7-1.3-3.8-1.9-6-1.9-6.4 0-.8.5-1.4 1.4-1.7.9-.3 3.9-.5 8.7-.5l.5-.5V22l-.5-.5c-6.7.3-12 .5-16 .5-4.3 0-9.6-.2-15.7-.5l-.5.5v2.8l.5.5c4.2.3 6.7.8 7.3 1.6.6.8 2.1 4.1 4.4 9.9l20.6 50.9c4.4 11.8 6.9 18.6 7.6 20.3h6.1c1.8-5.7 4.8-13.8 9-24.2l10.1-24.9c.1 1.6.1 3.9.2 6.8l.1 11.8v28l-.1 12.8c-.1 4.3-.2 7.1-.4 8.4-.3 1.3-.6 2.1-1 2.5-.4.4-1.3.7-2.5.9-1.3.2-3.8.4-7.5.6l-.5.4v3l.5.5c10.3-.3 16.1-.5 17.3-.5 1.6 0 3.9 0 6.7.1 6.9.2 10.4.4 10.7.4l.5-.5v-3l-.5-.4c-4.3-.2-7-.4-8.1-.7s-1.8-.7-2.2-1.1c-.4-.4-.7-1.3-.9-2.7-.2-1.3-.3-4.3-.4-8.8l-.1-11.8v-28l.2-13.7z"/></svg>
