<svg xmlns="http://www.w3.org/2000/svg" viewBox="0 0 169.2 169.5"><style>path{fill:#fff;}</style><path d="M84.3 169.5C37.6 169.5.1 131.8 0 85.2-.1 38 38.5-.5 85.8 0c45.1.5 83.5 38.8 83.4 84.2-.1 47.8-37.4 85.3-84.9 85.3zm.5-167.2C39.4 2.5 3.6 38.6 2.4 82.8c-1.2 45.4 34.1 82.3 78.3 84.2 45.5 2 83.9-32.3 85.8-78.7 1.9-47.4-34.3-84.9-81.7-86z"/><path d="M93.8 45.7c1.2 1.3 2.3 2.8 3.7 3.8 3.9 3 5.5 6.6 3.6 10.7 1.9.2 4.5-.3 5.2.7 1 1.3 1.2 3.8.7 5.5-1.1 4.1-3.3 5.2-7.6 4.7-.3 0-.7.3-2.1 1.1 5.5.4 6.8 3.5 6.9 7.5 0 .4.1.9.4 1.3 2.4 3.1 4.9 6.1 7.1 8.8-2.2 3-4 5.5-5.8 7.9-2.2-1-.2-5.7-3.4-4.5-1.8-2.3-3.2-4.2-5-6.3-1.4.7-2.9 1.4-4.3 2.2 0 .1.1.3.1.4 1.2-.3 2.4-.5 4.7-1.1-1.2 3.1-2.2 5.6-3.2 8l.1-.1c-4.3 3.3-8.1 7.5-14.3 6.8l.1.1c-.6-.6-1.2-1.4-1.9-1.9-2.3-1.7-4.7-3.4-7-5-.6-.8-1.2-1.7-1.8-2.5-.2-.9-.3-1.8-.5-2.9h3.2c-1.3-.9-2.8-1.8-4.2-2.7-1-2.4-2-4.9-3-7.3-2.2-2.2-4.3-4.4-6.6-6.5-2.6-2.4-5.4-4.8-8.1-7.1l.1.1c-.7-5.2-4.7-6.1-9-7l3.9-2.1c4.4 3.6 4.6 3.6 8.3.3 4 3.3 7.9 6.9 12.2 10 2 1.5 4.8 1.9 7.2 2.8.1-.2.3-.5.4-.7-1.8-.9-3.5-2.1-5.4-2.7-2-.6-6.4-6.2-6.1-8.3.5-3.8 2.9-4.4 7-1.9.1-.2.3-.3.3-.5-1.2-7.7-.7-9.1 6.9-10.5 5.6-1.1 11.5-.8 17.2-1.1.1.1 0 0 0 0zM79.7 70.5c1.2.6 1.9.8 2.6 1.3 1.2.8 2.7 2.6 3.3 2.3 1.5-.8 2.6-2.4 3.8-3.7-.3-.3-.6-.7-.8-1-.6.3-1.2.8-1.9 1-.9.2-2.5.4-2.6.2-1.4-4.4-2.7-1.4-4.4-.1zm1-8.4c.5 0 1 .1 1.4.1.2-1.7.4-3.5.6-5.2-3.1 1.3-4.3 2.9-2 5.1zm12 .5v-5.1c-3.3 2.2-3.4 2.8 0 5.1z"/><path d="M65.5 80.7c1 2.4 2 4.9 3 7.3-.5 1.9-.9 3.7-1.4 5.6l.1-.1c-.5.7-1.3 1.3-1.4 2-.3 2.2-.5 4.5-.3 6.7.1 2.3-.9 2.9-2.9 3-5.7.5-7.8 2.8-7.7 8.4.1 5 2.9 8.4 6.8 11 .6.4 1.6.2 2.8.3 0 .8-.1 1.7-.2 3-7.3-3.2-13-7.9-17.5-13.9C35.7 99 33.9 82.8 41 65.6c1.7-4.1 5.2-4.5 8.1-.9.7.8 1.3 1.7 2 2.6l-.1-.1c1.6 2.3 3 4.9 5 6.7 2.8 2.5 6.2 4.6 9.5 6.8zM120 53.4c21.8 23.9 11.6 58.4-9.6 71.1-2.3-1.6-1.6-2.8.5-3.8 6-2.8 6.5-4.2 3.4-9.9-1.5-2.6-3.2-5.2-5-7.6-2.7-3.7-2.6-6.7 1-9.5 2.6-2 3.3-3 1-6.3-2.6-3.7-6.4-7-6.7-12.1-.1-1 .4-2.2.8-3.2 1-2.2 2.1-4.4 3.2-6.4.8-1.4 1.7-2.9 2.9-4.1 2.6-2.8 5.5-5.4 8.5-8.2z"/><path d="M94.8 96.3c1.2-1.4 2.4-2.7 4-4.7.3 1.6.6 2.7.8 4 1-.4 2.1-.9 2.4-1.1 2.8 4.1 5.5 7.7 7.9 11.4 1.5 2.2 2.8 4.6 4 7 1.2 2.4 1.1 4.5-1.9 5.7-1.3.5-2.4 1.7-3.8 2.2-1.8.8-3.7 1.5-5.7 2-1.6.4-4.4 2.3-5.1 3.9-.1.2-.1.5-.3.6-1 .5-2.1 1-3.2 1.5 2.3 1.4 3.1 4.7 6.4 4.7 2.2 3.9-1.1 6.7-2.5 10.8-2.8-1.3-7.1-2-7.9-4.1-1.2-3.2-2.2-7.5.2-10.6-1.4-.9-2.9-1.9-4.8-3 4.7-4.6 9-8.7 12.8-12.5-1.3-.5-3.1-1.3-5-2.1-4.7 5-5.1 5.1-10 2.9-4.8 3.9-8.6 3.7-12.8-1.1-.9-1-1.1-2.5-1.7-3.7-.8-1.4-1.7-2.7-2.7-4.4.6-2.7 2.7-3.7 5.6-3.4 1.5.2 2.9.4 4.3.6l-.1-.1c1.6 0 3.2.1 4.8.1l-.1-.1c.8.5 1.5 1.4 2.4 1.5 4 .6 9.4-3.3 12-8.3v.3z"/><path d="M100.4 133.7c12.8-4.8 22.8-12.9 29.2-25.2 14-27.2 2.1-59.5-26.2-71.1-1.2-.5-2.2-1.4-3.2-2.2.3-.5.5-.9.8-1.4 3.5 1.6 7.2 2.9 10.4 4.9 17.8 11.1 27.3 27.3 26.4 48.2-1 21.7-12.1 37.5-31.8 47-2 1-3.8 1.4-5.6-.2zM93.6 32.7c2.2 2.5 2.2 5.5 1.4 8.4-.4 1.5 1.9 3.8-1.2 4.6l.1.1c-5.7-2.8-11.6-3.1-18.4-1.4.3-4.2.6-8.1.9-12l.1-.2c1.1-1.3 2.2-2.5 3.2-3.8 2.6-3.4 6.2-3.5 8.9-.3 1.5 1.7 3.4 3.1 5 4.6zM38.6 59.7c0 1.1.3 2.4-.2 3.4-10.1 21.4-4.6 46.7 13.7 61.5 9.6 7.8 20.7 11.7 33.1 11.6.8 0 1.5.1 2.3.2.1.4.2.7.3 1.1-1 .3-1.9.9-2.9.9-11.6.3-22-3.1-31.4-9.7-21.1-15-28.4-42.4-17.5-65.9.5-1.1 1.7-1.9 2.6-2.9v-.2z"/><path d="M73.5 131.1h-2.8c.1-.7.2-1.5.4-2.3-2.6 1-5.5-.5-6-3.2-.2-1.5-.2-2.3-2.2-2.4-2.6-.1-7.6-6.6-6.8-9.1.6-2.1-1.1-4.9 2.1-6.5 4.8-2.3 9.7-.5 11 4.7.5 1.9.7 3.9 1.1 6.2 3.7-1.4 4.6 2.2 5.5 4.6.9 2.8-.1 5.8-2.3 8zm-9.8-20.2c-.3.1-.5.2-.8.3 1.2 2.4 2.5 4.8 4 7.8.1-1.9.1-3.2.2-4.1-1.2-1.3-2.3-2.7-3.4-4zm9.6 15.7l.6-1.5c-4.4 1.8-2.3-2.3-4.5-3.4-.3 1.5-.6 2.8-.9 4.3 1.8.2 3.3.4 4.8.6zM60.9 61.7c-3.5-1.9-6.9-3.5-6.4-8.3.1-1.1-1.4-2.4-2.3-3.8 4.8-3 9.8-6.2 15.7-9.9v14.7c-5.3.6-5.3.6-7 7.3z"/><path d="M73.5 131.1c4-1.7 4.2-2.7 2-11.1 2.5-.9 5-1.7 7.4-2.6.1 0 .2-.2.3-.1 4.1 1.5 7.4-.4 10.4-3.3.3.4.5.7.8 1.1-3.4 3.7-6.9 7.3-10.4 11.1 1.3 2 2.4 3.8 3.9 6.1-5.2.6-9.8 0-14.4-1.2zM138.4 61.6c-.7-1.4-1.8-3.5-2.9-5.5 4.3-2.1 9-7.7 12.5-14.9 1.6 2.7 3 5.1 4.6 7.8-1.9.7-3.6 1.2-5.3 1.8 1.1 2.2 0 4.3-2.4 5.7-2.2 1.3-4.2 3.2-6.5 5.1zM93.7 32.8c-.6-.7-1.2-1.4-2.2-2.7 4.3.9 7.3 1.7 7.8 6.2.4 3.2 1.7 6.3 2.5 9.4.3 1.1.3 2.3.6 4.1 2 .7 4.3 1.7 6.8 2.3 2.4.7 4.9 1 8 1.6-3.9 2.1-7.4 2.7-10.8 1.1-5.6-2.5-11.6-8.8-9.8-16.4.7-2.8-.2-4.9-3.1-5.8l.2.2zM14.6 53.4c1.2-2.3 2.3-4.3 3.7-6.8 5 3.8 9.9 7.4 14.8 11.1-1.4 2.4-2.4 4.2-3.4 6-6-8.6-7.1-8.3-15.1-10.3zM65.6 9.6c-.5 1.5-.7 2.3-1.1 3-.9 1.8-.5 3 1.1 4.2.8.6 1.3 1.9 1.5 2.9.6 2.9.9 5.9 1.4 9.2-1.4.4-3.6 1.1-6 1.8.8-4.2-1.9-15.7-4.5-19.1 2.3-.6 4.5-1.2 7.6-2zM99.1 8.1c2.4.6 4.5 1.2 7.1 1.9-1.8 6.2-3.6 12.5-5.5 18.8-2.5-.8-4.2-1.4-6.3-2.1 4.8-5.3 6.3-11.6 4.7-18.6zM56.8 33.9c-2 1.4-4.3 3.1-6.7 4.8-.6-1.7-1.1-3.3-1.7-5.2-1.2.5-2.1.9-2.8 1.2.3-1.5.5-3 .8-4.4-.5.3-1.1.5-1.7.9-1.8-1.9-3.6-3.9-5.4-5.9l2.7-4.8c.3 0 .6 0 .7.1 3.4 3.8 6.7 7.7 10.2 11.4.8.8 2.3 1.1 3.9 1.9zM108.4 10.8c2.3 0 4.5.7 4.9 3.5.5 3 0 5.6-2.5 6.1.2 3 1.5 6.3.4 8.3-1.5 2.7-5.1 1.6-8.7 1.1 2.7-1.7 4.7-3 6.8-4.3-.1-.2-.2-.4-.3-.7-1 .3-2 .6-3.2.9 1.1-3.1-.8-6.7 2.8-9.3.8-.6-.1-3.6-.2-5.6zM132.6 24.2c-3.9 4.8-7.7 9.5-11.6 14.4-.2-.2-1.9-1.4-1.7-1.9 1.3-3.9-1.1-9.6 5-11.4 2.9-.9 5.5-4.6 8.3-1.1zM123.2 41.7c5.9-3.6 9.9-8.3 11.5-14.9 3.6 2 3.7 7.9.3 12.8-2.3 3.2-9 4.5-11.8 2.1zM28.4 46.1c2.9-.8 5.4-2.4 7.6.3 1.4 1.7.6 5.7-1.9 9.1-.5-2.6-.9-5-1.3-7.4H32c-.1 1.1-.1 2.1-.2 3.2-1.7-.6-3.4-1.2-5.6-1.9-.8-2.6-1.9-5.8-6.8-3.8.6-3.2 1.9-5.3 5.1-4.9 3.1.2 4.6 2 3.9 5.4zM66.8 9.3c3.1-1 8.1 1.8 9.3 4.8 2.3 6.1.6 11.8-4.3 13.8V15c-1.5-1.7-3.1-3.6-5-5.7zM109.8 141.7c5.2-2.2 5.3 3.4 8.1 4.1-.6-2.4-1.2-4.8-1.6-7.3 0-.2 1.2-.7 2.1-1.2 2 3.5 3.9 6.7 5.8 10-.4.3-.8.6-1.2.8-1.2-1.5-2.4-3-3.5-4.5-.1 0-.3.1-.4.1.3 1 .8 2 1 3 .2.9.1 1.9.1 2.8-.8-.4-1.7-.7-2.4-1.2-.9-.8-1.7-1.8-2.9-2.5.8 1.7 1.6 3.5 2.4 5.2-.4.2-.8.4-1.2.7-2-3.2-4-6.3-6.3-10z"/><path d="M118.4 51.9c-12.1-.4-13.9-1.7-16-10.8 6.3 2.2 11.3 5.6 16 10.8zM55.7 140c1.9.7 3.6 1 4.7 1.9.9.7 2 2.5 1.7 3.4-.9 2.7-2.4 5.3-4.4 7.9-.1-.8 0-1.7-.2-2.5-.3-1-.8-1.9-1.2-2.9-.8.5-1.6 1-2.3 1.7-.6.5-1.1 1.2-1.6 1.8-.4-.2-.8-.5-1.1-.7 1.4-3.4 2.8-6.8 4.4-10.6zM76.5 32.2l-.1.2c-3.1 1.7-2.4 4.3-2 7 .7 5.4-.4 7-4.9 8.1V33c2.4-.8 4.1-1.5 5.9-2 .2-.1.7.8 1.1 1.2zM26.3 120.4c-2.1 1.3-4 2.4-5.9 3.5-.4-2.1 3.3-5.2 9.1-7.9 1.4 3.5-2.3 5.3-2.7 8.4 2.1-1.3 4.1-2.4 6-3.6.3.4.5.9.8 1.3-3.1 2.2-6.2 4.4-9.7 6.9-1.6-3.7 2-5.4 2.4-8.6zM99.1 144.5c1.9 2.2 3.5 4.1 5.6 6.5-.4-2.8-.7-4.9-1-6.9.5-.3 1-.7 1.4-1 .2.6.3 1.3.5 1.9.6 2.6 1.3 5.2 1.8 7.9.1.7-.2 1.4-.3 2.1-.8-.3-1.7-.4-2.2-.9-1.4-1.4-2.6-3.1-4.3-5.2.4 3 .7 5.2 1.1 7.8-2.9-2.2-4.3-9.3-2.6-12.2zM84.5 158.1c-1.2-.9-2.4-2.5-3.6-2.5-1.3-.1-2.8 1.2-5.1 2.4 1.6-4.1 2.8-7.4 4.2-10.6.2-.5 1.2-.9 1.8-.9.4 0 1.2.7 1.3 1.2.8 3.3 1.4 6.7 2.1 10-.3.1-.5.3-.7.4zM122.5 134.6c2.1-1.6 3.8-3 6.3-5-.1 1.5.1 2.3-.2 2.9-.6 1.2-1.5 2.3-2.3 3.4 1.3-.5 2.6-1.1 3.9-1.4.5-.1 1.1.3 2.1.6-1.3 1.3-2.4 2.2-3.4 3.2.7 2.4 1.9 2.4 3.6.9.8-.6 1.9-.9 2.8-1.3l.6 1.2c-1.8 1.4-3.6 2.9-5.7 4.5-2.5-2.9-4.9-5.8-7.7-9zM25.3 112.3c-.5-.9-1-1.9-1.6-2.6-.5-.6-1.2-.9-1.9-1.4-.1.8-.4 1.7-.3 2.5.1.7.5 1.4.7 2.2-.3.2-.6.5-.9.7-1-1.2-2-2.4-3.1-3.7-2.6.2-2.3 1.5-1.4 3.4.4.7.2 1.8.3 2.6-.7-.6-1.7-1.1-2.2-1.9-.8-1.2-1.2-2.6-2-4.3 3.6-1.6 7-3.1 11-4.8.9 2.3 1.8 4.4 2.7 6.6-.4.3-.8.5-1.3.7zM42.1 142.9c1.3.9 2.6 1.9 4 2.9-2 1.3-3.4.7-7.2-2.7 2-3 4-6.1 6.3-9.6 2.2 1.4 4.2 2.6 6.1 3.9-.3.4-.5.9-.8 1.3-.9-.4-1.8-.9-2.8-1.1-.8-.2-1.7-.2-2.6-.2.4.7.8 1.5 1.2 2.2 0 .1.2.1.3.2.4.7.8 1.3 1.3 2-.8-.1-1.6.1-2.3-.2-2.4-1-2.3-1.1-3.5 1.3zM68.8 34.1c-.4 1.4-.4 2.1-.6 2.1C61 39 54.7 43 48.9 48c-.3.3-1.1 0-2.4-.1 6.3-6.7 13.4-10.8 22.3-13.8zM142 127.3c-2.4-2-4.2-3.5-6.1-5.1.3-.4.6-.8 1-1.1 3 2.4 5.9 4.7 8.9 7.1-.1.4-.2.8-.4 1.2-3-.6-6-1.1-9.5-1.8 2.2 2 4 3.7 5.9 5.4-.3.3-.5.6-.8.9l-9-6.9c1-1.1 1-1.1 10 .3zM70 93.6c.6.8 1.2 1.7 1.8 2.5 1.2 1.6 2.5 3.1 3.7 4.8.4.5.2 1.4.4 2.1l.1.1c-2.1-.4-4.2-.9-6.3-1.3-1.1-.2-2.1-.4-3.2-.6.5-1.2.9-2.3 1.3-3.3-.2-1.5-.4-3-.6-4.4l-.1.1H70zM49 55.1c-1.3-.2-2.9-.4-4.5-.7-.1-.4-.1-.7-.2-1.1 2.1-.6 4.2-1.5 6.4-1.7s2.7 1.6 2.6 3.5c-.2 2.1-.2 4.3-2.9 4.5-.7.1-2-.9-2.2-1.6-.3-.7.4-1.7.8-2.9zM102.8 58.5c.2-1 .4-2 .4-2.3h13.3c-2.1 1.6-3.6 2.7-5.1 3.8-1.9 1.4-3.4.7-5.1-.7-.8-.6-2.1-.5-3.5-.8zM36.7 129.1l-1.5-2.4c2.3-.6 2.8-.3 6.4 5-1-.2-2.1-.5-3.4-.8-2.1 1.9-4.4 4.1-6.7 6.3l-1.2-1.2c2.1-2.2 4.2-4.5 6.4-6.9zM143.9 114.2c2.6 1.4 5.2 2.9 8 4.4-1.5.9-1.5.9-9.6-2.7-.4.5-.7 1.1-1.2 1.4-.4.3-1 .2-1.5.3-.1-.5-.3-1.1-.2-1.5.5-1.1 1.1-2.3 1.8-3.3.6-.8 1.4-1.4 2.2-2 .2 1.1.3 2.1.5 3.4zM74.5 146.3c-6 1.3-2.6 7.6-5.6 10.1-.4-.1-.8-.1-1.2-.2.3-1.9.5-3.8.9-5.7.5-2.2 1.2-4.2-2.3-5 3.3-1.3 5.7-.2 8.2.8zM42.9 43.8c-1-4.7-2-9.4-3.2-14.5 4 3.2 1.5 9.5 6.4 12.3-1 .7-2.3 1.6-3.2 2.2zM91.7 157.5c-.4-3.7-.8-7.4-1.2-11.5 2.6 1.2 3.7 8.2 2.3 11.3-.4.1-.8.2-1.1.2zM42.3 51.3c.9 2.6 1.5 4.5 2.3 6.9-4.1-.7-4.9-3.3-2.3-6.9zM38.7 59.8l-1.2-5.1c.5-.2.9-.3 1.4-.5l1.8 4.8c-.7.2-1.4.5-2 .8z"/></svg>
