<svg xmlns="http://www.w3.org/2000/svg" viewBox="0 0 168.3 88.8"><style>path{fill:#fff;}</style><path d="M65 81.3V88l.5.1c1.5.3 3.1.5 4.7.6 1.4.1 2.8.1 4.1.1 1.3-.1 2.6-.3 3.9-.7 1.5-.4 2.8-1.1 4-2.1 1.1-.9 1.9-2.1 2.3-3.4.8-2.2.8-4.6-.1-6.7-.5-1.1-1.2-2.1-2.1-2.9-.9-.8-1.9-1.4-3.1-1.8l-5.1-1.9c-.6-.3-1.1-.7-1.4-1.3-.2-.5-.2-1.1.1-1.5.1-.2.2-.3.3-.4.2-.2.3-.3.5-.4.1-.1.1-.1.2-.1.6-.3 1.2-.5 1.8-.5 1.1-.2 2.2-.1 3.2 0 1.3.1 2.5.4 3.7.7l.3.1v-6.2l-.5-.1c-1.3-.3-2.5-.5-3.8-.7-1.7-.2-3.3-.2-5 0-2.1.2-4.1 1-5.8 2.3-1.1.9-2 2.1-2.5 3.4-.7 2-.7 4.3 0 6.3.4 1 1 1.9 1.8 2.7.7.7 1.4 1.2 2.3 1.7 1.1.6 2.3 1.1 3.5 1.4.4.1.8.3 1.2.4l.6.2c.1 0 .1.1.2.1.6.2 1.1.5 1.6 1 .3.3.6.7.7 1.1.1.4.1.8 0 1.1-.2.6-.6 1.1-1.2 1.4-.6.3-1.3.5-1.9.6-1 .2-2 .2-3 .1-1.3-.1-2.6-.3-3.9-.5-.7-.1-1.4-.3-2-.5l-.1-.4M37.4 87.7v-7.8l-.1.1c-1.8.9-3.7 1.3-5.6 1.4-2 .2-4-.4-5.7-1.7-1.1-.9-2-2.1-2.5-3.5-.5-1.5-.5-3.1-.2-4.7.4-1.6 1.2-3 2.5-4 1.1-.9 2.5-1.5 3.9-1.7 2.6-.3 5.2.2 7.4 1.4l.2.1v-7.8l-.4-.1c-2.3-.7-4.7-1.1-7.1-.9-2.2.1-4.3.6-6.3 1.4-2 .9-3.8 2.3-5.2 4-4.4 5.5-4.5 13.3-.3 19 2.1 2.6 5 4.5 8.3 5.3 3.5.8 7.1.7 10.4-.4l.7-.1M55 88.2V59h-7.4v29.2H55M0 35.5c.1.9.5 1.8 1.2 2.4.7.6 1.6 1 2.5 1 .9 0 1.8-.3 2.5-1 .7-.6 1.1-1.5 1.2-2.4v-8.1c0-.9-.4-1.8-1.1-2.5-.7-.7-1.6-1-2.5-1s-1.8.4-2.5 1c-.9.7-1.3 1.5-1.3 2.5v8.1M20.2 35.5c.1.9.5 1.8 1.2 2.4.7.6 1.6 1 2.5 1 .9 0 1.8-.3 2.5-1 .7-.6 1.1-1.5 1.2-2.4V17.3c0-.9-.4-1.8-1.1-2.5-.7-.7-1.6-1-2.5-1s-1.9.4-2.5 1c-.7.7-1.1 1.5-1.1 2.5l-.2 18.2M40.3 42.8c.1.9.5 1.8 1.2 2.4.7.6 1.6 1 2.5 1 .9 0 1.8-.3 2.5-1 .7-.6 1.1-1.5 1.2-2.4V3.5c0-.9-.4-1.8-1.1-2.5-.7-.7-1.6-1-2.5-1s-1.8.4-2.5 1-1.1 1.5-1.1 2.5l-.2 39.3M60.4 35.5c.1.9.5 1.8 1.2 2.4.7.6 1.6 1 2.5 1 .9 0 1.8-.3 2.5-1 .7-.6 1.1-1.5 1.2-2.4V17.3c0-.9-.4-1.8-1.1-2.5-.7-.7-1.6-1-2.5-1-.9 0-1.8.4-2.5 1-.7.7-1.1 1.5-1.1 2.5v18.2M80.5 35.5c.1.9.5 1.8 1.2 2.4.7.6 1.6 1 2.5 1 .9 0 1.8-.3 2.5-1 .7-.6 1.1-1.5 1.2-2.4v-8.1c0-.9-.4-1.8-1.1-2.5-.7-.7-1.6-1-2.5-1s-1.9.4-2.5 1c-.7.7-1.1 1.5-1.1 2.5v8.1M100.7 35.5c.1.9.5 1.8 1.2 2.4.7.6 1.6 1 2.5 1 .9 0 1.8-.3 2.5-1 .7-.6 1.1-1.5 1.2-2.4V17.3c0-.9-.4-1.8-1.1-2.5-.7-.7-1.6-1-2.5-1s-1.9.4-2.5 1c-.7.7-1.1 1.5-1.1 2.5v18.2M120.8 42.8c.1.9.5 1.8 1.2 2.4.7.6 1.6 1 2.5 1 .9 0 1.8-.3 2.5-1 .7-.6 1.1-1.5 1.2-2.4V3.5c0-.9-.4-1.8-1.1-2.5-.7-.7-1.6-1-2.5-1s-1.9.4-2.5 1c-.7.7-1.1 1.5-1.1 2.5l-.2 39.3M140.9 35.5c.1.9.5 1.8 1.2 2.4.7.6 1.6 1 2.5 1 .9 0 1.8-.3 2.5-1 .7-.6 1.1-1.5 1.2-2.4V17.3c0-.9-.4-1.8-1.1-2.5-.7-.7-1.6-1-2.5-1s-1.9.4-2.5 1c-.7.7-1.1 1.5-1.1 2.5l-.2 18.2M161 35.5c.1.9.5 1.8 1.2 2.4.7.6 1.6 1 2.5 1 .9 0 1.8-.3 2.5-1 .7-.6 1.1-1.5 1.2-2.4v-8.1c0-.9-.4-1.8-1.1-2.5-.7-.7-1.6-1-2.5-1s-1.9.4-2.5 1c-.7.7-1.1 1.5-1.1 2.5l-.2 8.1M114.5 87.7v-7.8l-.1.1c-1.8.9-3.7 1.3-5.6 1.4-2 .2-4-.4-5.7-1.7-1.2-.9-2-2.1-2.5-3.5-.5-1.5-.6-3.1-.2-4.7.4-1.6 1.2-3 2.5-4 1.1-.9 2.5-1.5 3.9-1.7 2.6-.3 5.2.2 7.4 1.4l.2.1v-7.8l-.4-.1c-2.3-.7-4.7-1.1-7.1-.9-2.2.1-4.3.6-6.3 1.4-2 .9-3.8 2.3-5.2 4-4.4 5.5-4.5 13.3-.3 19 2.1 2.6 5 4.5 8.3 5.3 3.4.8 7.1.7 10.4-.4l.7-.1M122.3 73.6c.1 4.6 2.2 9 5.8 11.8 3.6 2.9 8.4 3.9 12.9 2.9 6.1-1.1 10.9-6 12-12.1 1.1-6.1-1.7-12.3-7.1-15.5-4.7-2.9-10.7-3.1-15.5-.4-5 2.7-8 7.8-8.1 13.3m10.6-6c1.6-1.3 3.6-1.9 5.6-1.6 2 .2 3.9 1.3 5.1 2.8 1.3 1.6 1.9 3.6 1.6 5.7-.2 2-1.3 3.9-2.8 5.1-1.6 1.3-3.6 1.9-5.6 1.6-2-.2-3.9-1.3-5.1-2.8-1.3-1.6-1.9-3.6-1.6-5.6.2-2 1.3-3.9 2.8-5.2"/></svg>
