<svg xmlns="http://www.w3.org/2000/svg" viewBox="0 0 156.2 181.7"><style>path{fill:#fff;}</style><path d="M154.2 0H0v156.2h156.2V0h-2zm-2.1 4.1v148.1H4.1V4.1h148z"/><path d="M116.1 30.5s-19.3-.1-19.3 24.3v8.7h20.1v19.6h-20v50c6.7 0 11.9-1.3 17.4-4.8 12.6-8.1 14.3-25.5 14.3-39.1V30.5h-12.5zM72.2 64.9v-10c0-16.6 3.1-24.3 9.3-31.8L27.7 80.2v23h38l18.8-20H55.1l17.1-18.3z"/><g><path d="M136.4 174.5h-.1l-6.5-11.6h-4.6V181h4.1v-11.4L136 181h4.5v-18.1h-4.1zM123.4 172c0-5.1-3.4-9.6-9.2-9.6-5.8 0-9.2 4.5-9.2 9.6s3.4 9.6 9.2 9.6c5.8 0 9.2-4.5 9.2-9.6zm-9.2 5.7c-3.6 0-4.6-3.1-4.6-5.8 0-4.1 2-5.8 4.6-5.8 3.4 0 4.6 2.9 4.6 5.8.1 2.9-1.2 5.8-4.6 5.8zM86.3 170.2h-8.7v-3.8h9.3v-3.5H73.1V181h4.5v-7.2h8.7zM142.2 166.4h4.7V181h4.6v-14.6h4.7v-3.5h-14zM100 173.8c2.3-.7 3.7-2.6 3.7-4.9 0-4.1-2.5-6-6.6-6H88V181h4.5v-6.5h2.9L99 181h5.1l-4.1-7.2zm-3.2-2.6h-4.2v-4.9h4.2c1.4 0 2.4.8 2.4 2.4 0 1.7-.9 2.4-2.4 2.5zM70.9 168.6c0-4.2-2.7-5.7-6.5-5.7H54.1V181h5.6v-6.4h2l3.5 6.4h6.2l-4.3-7.2c2.4-.9 3.8-2.6 3.8-5.2zm-8.6 2.4h-2.6v-4.4h2.6c1.7 0 3.1.2 3.1 2.2s-1.5 2.2-3.1 2.2zM46.8 174c0 2-.3 3.3-2.6 3.3-2.3 0-2.6-1.3-2.6-3.3v-11.1H36v11.3c0 5.4 3 7.5 8.2 7.5 5.2 0 8.2-2.1 8.2-7.5v-11.3h-5.6V174zM24.8 162.3c-5.8 0-9.8 3.9-9.8 9.7s3.9 9.7 9.8 9.7c5.8 0 9.7-3.9 9.7-9.7 0-5.8-3.9-9.7-9.7-9.7zm0 14.9c-3 0-4-2.7-4-5.3s1.1-5.3 4-5.3 4 2.7 4 5.3c0 2.6-1.1 5.3-4 5.3zM13.6 170.2H4.9v-3.8h9.3v-3.5H.4V181h4.5v-7.2h8.7z"/></g></svg>
