<svg id="Layer_1" xmlns="http://www.w3.org/2000/svg" viewBox="0 0 259.7 59.7"><style>.st0{fill:none}</style><path d="M259.7 32.7c-1.5 3.4-2.3 7.5-4.6 10.1-2.8 3.2-6.7 2.1-10.5.2-1.4-.7-3.8.7-5.8.9-1.6.2-3.2.1-4.8.1.9-1.6 1.5-3.3 2.6-4.7.7-.9 2-1.4 3.9-2.7-2.1-.2-3.3-.1-4.2-.6s-2.2-1.8-2.1-2.6c.1-.9 1.6-2.2 2.5-2.2 7.1-.2 14.2-.1 21.4-.1.5.6 1.1 1.1 1.6 1.6zM247 36.2c-.3.4-.6.9-.9 1.3 1.3.9 2.5 2.6 3.8 2.5 1.4-.1 2.8-1.6 4.2-2.5-.2-.4-.5-.8-.7-1.3H247zM255.2 57.1c-1.3-2.5-2.2-4.2-3.1-5.9-1.4 1.4-3.2 2.6-4.2 4.3-2.2 3.7-5 5.3-9.1 3.5-3.9-1.6-6.2-7-4.1-10.4 1-1.7 3.6-2.4 5.5-3.5.4.4.7.9 1.1 1.3-.6 1.2-1.6 2.4-1.7 3.7-.1 1.3.5 2.6.9 3.9 1.3-.4 2.8-.6 3.8-1.4 1.1-.9 1.3-3.1 2.4-3.7 2.3-1.2 5.5-3 7.4-2.3 2.2.9 3.9 4.1 4.7 6.6.7 2.9-1.2 4.4-3.6 3.9zM184.8 25.8c0-6.4.2-12.8-.1-19.2-.2-4.4 1.7-5.4 5.6-5.2 2.8.2 3.8 1.2 3.8 3.9-.1 14.8 0 29.6-.1 44.5 0 1.3-1.6 3.7-2.1 3.7-2.2-.4-5.2-.9-6.2-2.5-3.8-5.9-6.8-12.2-10.2-18.3-.8-1.4-1.7-2.7-3.8-3.9-.2 1.5-.5 3-.5 4.4 0 5.7 0 11.3.1 17 .1 3.4-2.1 3.7-4.7 3.6-2.5 0-4.7-.1-4.7-3.5 0-14.8-.1-29.6.1-44.5 0-1.2 1.8-3.4 2.5-3.3 2.4.3 5.7.7 6.8 2.4 3.1 4.5 5.2 9.6 7.8 14.5 1.2 2.3 2.5 4.6 3.8 6.8.7-.1 1.3-.3 1.9-.4zM58 28.5c0-7.3.1-14.7 0-22 0-3 1.1-4.2 4.1-4.1 5 .1 10 .2 15 0 3.4-.1 4.3 1.4 4.3 4.5-.1 2.8-.4 5.1-4 4.7h-1c-9.3.2-9 .2-9.1 9.4-.1 4.6 1.8 5.7 6 5.5 2.5-.2 5.8-1.2 6.1 3.5.4 5-1.8 5.9-6.1 5.8-5.4-.1-6.6 1.3-5.5 6 .3 1.4 2.3 2.9 3.8 3.4 1.8.6 4 .3 6 .1 3.6-.3 4.1 1.8 4.1 4.7 0 2.7-.5 4.6-3.8 4.5-5.3-.1-10.7-.1-16 0-2.9.1-3.7-1.5-3.6-4.1-.2-7.2-.3-14.5-.3-21.9zM0 29c0-7.1.1-14.3 0-21.4-.1-3.3 1.3-4.5 4.4-4.4 5 .1 10 .1 15 0 3.1-.1 4 1.5 4 4.3-.1 2.7-.1 5.2-3.8 5h-1.5c-8.3.1-8.6-1.9-8.8 8.5-.1 4.9 1.8 6.5 6.4 6.2 2.5-.2 5.4-.7 5.6 3.6s-.9 6.2-5.5 5.8c-2.7-.2-6.4-1.3-6.4 3.7 0 3.4.9 5.5 4.8 5.1 1.5-.1 3 .1 4.5 0 3.3-.3 4.9.8 4.9 4.4 0 3.7-1.4 5-5 4.9-4.6-.2-9.3-.2-14 0C.9 54.9-.1 53.3 0 50c.2-7 0-14 0-21zM210.1 35.6c-.4-6.6-1-13.3-1-19.9 0-4.2-1.9-5.4-5.5-4.7-3.1.6-5.7 1.2-5.6-3.5 0-3.7 0-6.5 5.1-6.2 7.1.4 14.3.2 21.5 0 3.3-.1 4.9.9 4.9 4.5-.1 3.2-.7 5.4-4.4 4.9-5-.7-6.1 1.6-6 6.2.3 10.7 0 21.3.2 32 .1 3.5-1.1 4.7-4.6 4.7-3.3 0-5-1-4.8-4.5.2-4.5 0-9 0-13.5h.2zM28 29c0-7.2.1-14.3 0-21.5-.1-3.3 1.3-4.4 4.4-4.4 3.2 0 4.9.8 4.9 4.5-.1 10.7.2 21.3 0 32-.1 4.6 1.5 6.5 6.1 5.9 1.6-.2 3.3.1 5-.1 3.6-.4 5.1.9 5.1 4.8 0 3.6-1.6 4.6-4.9 4.5-5.5-.2-11-.1-16.5 0-3 .1-4.1-1.2-4.1-4.2.1-7.1.1-14.3 0-21.5.1 0 0 0 0 0zM157.9 40.3c-.3-1.3-1.6-2.4-2.4-3.5-1.1.9-2.3 1.6-3.1 2.7-1.8 2.2-3 4.9-5.1 6.7-3.7 3.1-8.3 2.3-10.8-1.5-3.2-4.8-2.5-7.1 2.6-10.2 7.7-4.6 13.4-10.6 13-20.3-.2-5.9-5-11.7-9.9-12.4-4.1-.6-9.5 3.2-11.2 9-1.5 5.4-1.9 11.1-3.1 16.6-.3 1.6-1.8 2.9-2.7 4.3-.9-1.4-2.6-2.8-2.7-4.3-.7-6.6-.6-13.3-1.5-19.9-.3-2.4-2.8-4.5-4.3-6.8-1.7 1.8-4.1 3.2-5.1 5.3-2.1 4.5-3.6 9.4-5.7 15-.8-1.9-1.3-2.9-1.6-4-.7-2.5-1-5.3-2-7.6-.7-1.5-2.5-3.2-3.8-3.3C97.4 6 96 8.2 95 9.5c-.9 1.2-1.5 2.7-2.4 4.3-1.8-3.5-3.2-6.3-4.6-9-.5.2-1 .3-1.5.5-.1 1.4-.4 2.8-.3 4.2.2 6 .4 12 .7 17.9.4 7.5.6 15 1.2 22.4.3 3 1.2 6.2 6.4 6.7 0-6.1-.5-11.9.1-17.6.6-5.5 2.2-10.8 3.4-16.2l1.8.3c.4 2.3.9 4.5 1.2 6.8.9 6.7 1.6 13.5 2.9 20.2.3 1.7 2.6 3.1 3.9 4.6.8-1.8 2.1-3.5 2.3-5.3 1.2-8.5 2.1-17.1 3.2-25.6.2-1.8 1.1-3.5 1.7-5.3.4.1.9.1 1.3.2.2 1.4.5 2.7.5 4.1.4 9 .8 17.9 1.2 26.9.2 3.6.8 6.9 5.6 8.1V36.6c4.7-.8 5.4 2.2 6.3 5.2 1.9 6.5 4.9 12.1 12 14.1 8.3 2.1 18.1-7.3 16-15.6zm-20.1-25.5c.6-1.3 3.5-1.7 5.3-2.5.6 1.9 2 4.1 1.5 5.7-1.5 4.9-4.6 8.6-9.2 10.9-.6-.3-1.3-.5-1.9-.8 1.3-4.5 2.4-9.1 4.3-13.3z"/><path class="st0" d="M248.2 23.9l3.6-1.6-3.6-1.7z"/><path d="M254 18c-5.7-1.4-11.4-3-17.1-4.5 0 0 .1 0 .1.1-3.9 1.8-3.9 2.9-1.3 6.2l5.7 2.5V24l-6.2 2.5c-.5.9-1.2 1.8-1.7 2.7l1.2 1.2 19.2-3.9c2.3-.5 4.9-.3 4.8-4.2 0-3.7-2.3-3.7-4.7-4.3zm-5.8 5.9v-3.3l3.5 1.7-3.5 1.6z"/><g><path class="st0" d="M243.7 3.2h-7l.1 3.1c.8 1 2 2 2 2l1.3 1s1.3 2 3.5-1c2.3-3.1.1-5.1.1-5.1z"/><path d="M237 13.6h-.1.1zM255.2 0c-4.7.1-9.3 0-14 0-7.4 0-9.2 2.7-6.3 9.7.6 1.3 1.4 2.6 2.1 3.8 3.9 1.1 7.5 1.2 10-2.5 7.1 3.8 11.7.9 11.8-7.1.1-2.7-.7-4-3.6-3.9zm-11.5 8.3c-2.3 3-3.5 1-3.5 1l-1.3-1s-1.3-1-2-2l-.1-3.1h7c-.1 0 2.1 2-.1 5.1zm10.3.5c-2 2.5-8-5.6-4-5.6h4s2 3 0 5.6z"/></g></svg>
