<?xml version="1.0" encoding="utf-8"?>
<!-- Generator: Adobe Illustrator 23.0.3, SVG Export Plug-In . SVG Version: 6.00 Build 0)  -->
<svg version="1.1" id="Layer_1" xmlns="http://www.w3.org/2000/svg" xmlns:xlink="http://www.w3.org/1999/xlink" x="0px" y="0px"
	 viewBox="0 0 87.8 73" style="enable-background:new 0 0 87.8 73;" xml:space="preserve">
<style type="text/css">
	.st0{fill:#BE1E82;}
</style>
<g>
	<path class="st0" d="M35.6,4.8c1.3-0.5,2.4,0.1,3.3,1.8c0.9,1.6,0.8,2.9-0.1,3.7c-6,4.4-10.1,8.2-12.4,11.4
		c-2.1,3.1-3.1,6.4-3.1,9.9c0,2.1,0.4,3.6,1.2,4.7c0.8,1.1,1.8,2,3,2.8c1.2,0.7,2.5,1.4,3.9,1.9c1.4,0.6,2.7,1.3,3.9,2.3
		c1.2,1,2.2,2.3,3,3.9c0.8,1.6,1.2,3.8,1.2,6.7c0,4.1-1.4,7.6-4.1,10.4c-2.7,2.8-6.7,4.2-11.9,4.2c-5.6,0-10.2-2.1-13.6-6.2
		c-3.5-4.2-5.3-9.5-5.3-15.9c0-5.7,1-10.8,2.9-15.3c1.9-4.5,4.4-8.4,7.4-11.9c3-3.4,6.3-6.3,9.9-8.7C28.5,8.2,32.1,6.3,35.6,4.8z
		 M79.2,4.8c1.3-0.5,2.4,0.1,3.3,1.8c0.9,1.6,0.8,2.9-0.1,3.7c-6,4.4-10.1,8.2-12.4,11.4c-2.1,3.1-3.1,6.4-3.1,9.9
		c0,2.1,0.4,3.6,1.2,4.7c0.8,1.1,1.8,2,3,2.8c1.2,0.7,2.5,1.4,3.9,1.9c1.4,0.6,2.7,1.3,3.9,2.3c1.2,1,2.2,2.3,3,3.9
		c0.8,1.6,1.2,3.8,1.2,6.7c0,4.1-1.4,7.6-4.1,10.4c-2.7,2.8-6.7,4.2-11.9,4.2c-5.6,0-10.2-2.1-13.6-6.2c-3.5-4.2-5.3-9.5-5.3-15.9
		c0-5.7,1-10.8,2.9-15.3c1.9-4.5,4.4-8.4,7.4-11.9c3-3.4,6.3-6.3,9.9-8.7C72.1,8.2,75.7,6.3,79.2,4.8z"/>
</g>
</svg>
