<?xml version="1.0" encoding="utf-8"?>
<!-- Generator: Adobe Illustrator 23.1.0, SVG Export Plug-In . SVG Version: 6.00 Build 0)  -->
<svg version="1.1" id="PINKSTAR_Imagen" xmlns="http://www.w3.org/2000/svg" xmlns:xlink="http://www.w3.org/1999/xlink" x="0px"
	 y="0px" viewBox="0 0 480 480" style="enable-background:new 0 0 480 480;" xml:space="preserve">
<style type="text/css">
	.st0{display:none;fill:#FDFDFD;}
	.st1{fill:#BE1D82;}
	.st2{fill:#DE8EC0;}
	.st3{fill:#D05EA5;}
</style>
<title>PINKSTAR</title>
<ellipse class="st0" cx="240.1" cy="240.3" rx="581.2" ry="420.9"/>
<path class="st1" d="M94.4,445.1c1-4.2,2.8-8.1,4.1-12.2c1.1-3.4,2.4-6.7,3.6-10.1c3.9-11,7.8-22,11.8-33c2-5.5,3.8-11.1,5.8-16.7
	c4.6-13,9.2-25.9,13.8-38.9c2.9-8.1,5.7-16.2,8.5-24.3c2.1-5.8,4.2-11.7,6.3-17.5c0.8-2.1,0.7-2.6-1.4-3.9
	c-5.9-4-11.8-7.8-17.8-11.8c-10.1-6.8-20.3-13.5-30.4-20.3c-8.8-5.9-17.7-11.6-26.4-17.6c-4.5-3.1-9.1-6.1-13.7-9.2
	c-6.4-4.3-12.8-8.6-19.3-12.8c-7.7-5-15.3-10-22.9-15.1c-3.8-2.6-7.7-5.2-11.6-7.6c-1.4-1-2.7-2.1-3.9-3.4c0.9-0.3,1.9-0.4,2.8-0.2
	c58.9,0,117.7,0,176.6,0c4.3,0,3.2,0.5,4.5-3.3c3.2-9,6.2-18.1,9.4-27c2.7-7.7,5.4-15.4,8.1-23.2c3.7-10.8,7.6-21.6,11.4-32.4
	c3.7-10.6,7.4-21.2,11.1-31.8c4-11.3,7.9-22.5,11.9-33.8c0.9-2.5,1.8-4.9,2.7-7.6c2.2,4.8,3.7,9.8,5.4,14.6
	c6.4,18,12.6,36,18.9,54.1c3.8,10.9,7.6,21.7,11.5,32.5l14,39.8l5.5,15.6c0.9,2.5,0.9,2.5,3.5,2.5h151.9c8.6,0,17.3,0,25.9,0
	c0.7,0,1.4-0.3,2.1,0.3l-0.7,0.7c-3.3,3.5-7.6,5.8-11.5,8.4c-10.5,7-20.9,14.1-31.5,21c-9.3,6.1-18.5,12.3-27.7,18.4
	c-16.2,10.7-32.3,21.6-48.4,32.3c-8.5,5.6-17,11-25.3,16.8c-1,0.7-2,1.4-1.9,2.8c1.2,4.6,3,9.1,4.6,13.6c2.9,8.3,5.9,16.6,8.8,24.8
	c7.2,20.2,14.4,40.5,21.5,60.7c4.4,12.5,8.8,25,13.2,37.5c2,5.8,4.1,11.6,6.2,17.4c0.3,0.5,0.4,1.1-0.1,1.5s-1.2,0-1.7-0.4
	c-3.7-2.3-7.3-4.9-11-7.2c-12.9-8.3-25.7-17-38.5-25.4c-12.1-8-24.2-16-36.3-24c-10.4-7-20.9-13.9-31.4-20.7
	c-8.1-5.3-16.1-10.6-24.1-16.1c-1.3-1.1-3.2-1.2-4.5-0.1c-10.9,7.2-21.7,14.4-32.6,21.5c-9.7,6.3-19.3,12.8-29,19.1
	s-19.1,12.8-28.8,19c-9.1,5.9-18.1,12-27.2,17.9c-7.6,4.9-14.9,10.1-22.6,15c-0.6,0.4-1.2,1.2-2.1,0.9h-0.2H95
	c-0.2,0.1-0.4,0.2-0.6,0.4l0,0c-0.1,0.1-0.3,0.2-0.4,0.1c0,0-0.1-0.1-0.1-0.1l0.1-0.9C94.2,445.6,94.3,445.4,94.4,445.1z"/>
<path class="st2" d="M95.4,446.2c2.6-2.2,5.7-3.8,8.5-5.7c4.8-3.4,9.8-6.6,14.6-9.9c2.4-1.6,4.9-3,7.3-4.6
	c5.3-3.5,10.6-7.1,15.9-10.6c6.3-4.1,12.5-8.2,18.8-12.3c11.2-7.4,22.5-14.9,33.7-22.3l31.1-20.6c4.3-2.9,8.7-5.6,13-8.5
	c0.9-0.8,2.2-0.8,3.1,0c6.5,4.4,12.9,8.8,19.4,13.1c4.5,3,9.2,5.8,13.6,8.9c4.8,3.4,9.8,6.3,14.5,9.8c1.8,1.3,3.8,2.3,5.7,3.5
	c6.7,4.4,13.4,8.9,20.1,13.4c8.5,5.6,17,11.3,25.5,16.9c11.4,7.5,22.8,15,34.1,22.5c3.2,2.1,6.4,4.2,9.6,6.3
	c1.1,0.7,1.1,0.7,1.4-0.8c0.8,1,0.9,2.3,1.3,3.5c-0.6,0-1.2-0.3-1.7-0.7c-15.7-10.4-31.3-20.7-46.9-31.1c-9.6-6.3-19.2-12.6-28.8-19
	c-10-6.6-19.9-13.3-29.9-19.9c-10.8-7.1-21.6-14.2-32.4-21.3c-1.6-1-3.2-2.1-4.8-3.2c-0.8-0.8-2.2-0.8-3,0c-6.5,4.4-13,8.6-19.6,13
	l-42.9,28.5c-9.6,6.4-19.2,12.7-28.8,19c-9.9,6.5-19.8,13-29.6,19.5c-7.3,4.8-14.6,9.7-21.9,14.6c-0.5,0.3-0.8,0.7-1.5,0.7
	C94.6,447.8,95.4,447.1,95.4,446.2z"/>
<path class="st2" d="M331,291.1c-1-0.9-1.1-1.6,0.2-2.4c7.3-4.9,14.5-9.8,21.9-14.5c6-3.8,11.8-7.9,17.7-11.9
	c9.4-6.3,18.9-12.5,28.3-18.8c10.4-6.9,20.8-13.9,31.2-20.9l33.2-22.2c4.5-3,9.1-5.9,13.4-9.1c0.1-0.1,0.3-0.1,0.5-0.1
	c0,0.3-0.4,0.6,0.1,0.8s1.1-0.2,1.5,0.4c-0.5,0.6-1.2,1.1-1.9,1.4c-13.7,9.1-27.4,18.2-41.1,27.4L333,289.9
	C332.4,290.4,331.7,290.8,331,291.1z"/>
<path class="st3" d="M93.9,446.7h0.5c-0.1,0.4-0.4,0.5-0.7,0.3C93.6,446.9,93.7,446.7,93.9,446.7z"/>
<path class="st3" d="M94.4,445.1c0,0.2-0.1,0.5-0.3,0.6C94,445.5,94.1,445.2,94.4,445.1z"/>
<path class="st3" d="M94.4,446.7c0.1-0.3,0.3-0.4,0.6-0.4C94.9,446.5,94.7,446.7,94.4,446.7z"/>
</svg>
