<?xml version="1.0" encoding="utf-8"?>
<!-- Generator: Adobe Illustrator 23.0.6, SVG Export Plug-In . SVG Version: 6.00 Build 0)  -->
<svg version="1.1" id="Layer_1" xmlns="http://www.w3.org/2000/svg" xmlns:xlink="http://www.w3.org/1999/xlink" x="0px" y="0px"
	 viewBox="0 0 87.8 73" style="enable-background:new 0 0 87.8 73;" xml:space="preserve">
<g>
	<path d="M62.9,10.5c3.6,2.4,6.9,5.3,9.9,8.7c3,3.5,5.5,7.4,7.4,11.9s2.9,9.6,2.9,15.3c0,6.4-1.8,11.7-5.3,15.9
		c-3.4,4.1-8,6.2-13.6,6.2c-5.2,0-9.2-1.4-11.9-4.2c-2.7-2.8-4.1-6.3-4.1-10.4c0-2.9,0.4-5.1,1.2-6.7c0.8-1.6,1.8-2.9,3-3.9
		s2.5-1.7,3.9-2.3c1.4-0.5,2.7-1.2,3.9-1.9c1.2-0.8,2.2-1.7,3-2.8s1.2-2.6,1.2-4.7c0-3.5-1-6.8-3.1-9.9c-2.3-3.2-6.4-7-12.4-11.4
		c-0.9-0.8-1-2.1-0.1-3.7c0.9-1.7,2-2.3,3.3-1.8C55.6,6.3,59.2,8.2,62.9,10.5z M19.3,10.5c3.6,2.4,6.9,5.3,9.9,8.7
		c3,3.5,5.5,7.4,7.4,11.9s2.9,9.6,2.9,15.3c0,6.4-1.8,11.7-5.3,15.9c-3.4,4.1-8,6.2-13.6,6.2c-5.2,0-9.2-1.4-11.9-4.2
		C6,61.5,4.6,58,4.6,53.9c0-2.9,0.4-5.1,1.2-6.7c0.8-1.6,1.8-2.9,3-3.9c1.2-1,2.5-1.7,3.9-2.3c1.4-0.5,2.7-1.2,3.9-1.9
		c1.2-0.8,2.2-1.7,3-2.8c0.8-1.1,1.2-2.6,1.2-4.7c0-3.5-1-6.8-3.1-9.9c-2.3-3.2-6.4-7-12.4-11.4c-0.9-0.8-1-2.1-0.1-3.7
		c0.9-1.7,2-2.3,3.3-1.8C12,6.3,15.6,8.2,19.3,10.5z"/>
</g>
</svg>
