<svg id="Layer_1" xmlns="http://www.w3.org/2000/svg" viewBox="0 0 150.7 27.5"><style>.st0{fill:#fff}</style><path class="st0" d="M18 4.2c-2.4-1.8-5.3-2.6-9.9-2.6-2.8 0-5.4.2-7.4.5h.1v23.7c1.4.2 3.4.4 6.2.4 4.7 0 8.6-1 11.1-3.1 2.3-2 4-5.2 4-9.8 0-4.3-1.6-7.2-4.1-9.1zM8 21.8c-.7 0-1.4 0-1.9-.1H6V6c.5-.1 1.3-.2 2.5-.2 4.7 0 7.6 2.6 7.6 7.6 0 5.7-3.2 8.4-8.1 8.4zM41.2 8c-3.9 0-6.4 2-7.7 4.6V8c-.3-.1-.6-.1-1.1-.1-1.7 0-3.8 1.1-4.7 3.6h-.1l-.2-3.2h-4.7c0 1.5.1 3.2.1 5.8v11.8h5.4V17c0-.4 0-.8.1-1.2.3-1.7 1.7-2.8 3.7-2.8.5 0 .9 0 1.3.1-.6 1.3-.9 2.8-.9 4.2 0 5.5 3.4 8.9 9.3 8.9 2.3 0 4.5-.4 6.3-1.1l-.7-3.7c-1.4.4-2.9.7-4.8.7-2.5 0-4.7-1-4.9-3.3h11.2c.1-.3.2-1.2.2-2.1 0-4.3-2.2-8.7-7.8-8.7zm-3.7 7.1c.2-1.4 1.1-3.5 3.4-3.5 2.5 0 3.1 2.2 3.1 3.5h-6.5z"/><path class="st0" d="M87 8.8c-2.8-1.3-5.3-.3-5.3-.3-2 .5-3.6 2.1-3.6 2.1-.1-.2-1.2-1.3-2.1-1.7-.9-.4-1.4-.7-3.4-.8-1.9-.1-3.5.8-3.5.8v-.6H58s-4.1-.1-7 3.3c-3 3.5-1.6 8.2-1.6 8.2s.6 2.8 3.6 4.9c3 2.1 7.2 1.4 8.1.6v.9H69V16c.1-1.5.9-2.3.9-2.3 1-1.1 2.4-1 2.4-1 1.4 0 2.2.9 2.2.9 1.2 1.1 1 2.9 1 2.9v9.8h4.7V16c.1-1.2.5-1.7.5-1.7.3-.4.9-1.4 2.8-1.5 1.9-.1 2.8 1.7 2.8 1.7.4.8.4 2.1.4 2.1v9.7h4.8V15.4c0-1.6-.7-3.1-.7-3.1C89.3 9.6 87 8.8 87 8.8zM61.1 21.1s-4.2 2.3-6.8-1.4c0 0-1.8-2.7.5-5.6 0 0 1.1-1.5 3.3-1.6h3v8.6zm6.2-.2L65 19.7l-2.3 1.2.4-2.6-1.9-1.8 2.6-.4 1.2-2.4 1.1 2.4 2.7.4-1.9 1.8.4 2.6zM107.2 9.7h-3.7l-4.9 5.8c-.5.6-1.1 1.3-1.5 1.9H97V1.9h-3v24.5h3v-6.3l1.6-1.7 5.8 8h3.7l-7.3-9.8 6.4-6.9zM122.6 16.2c0-3.3-1.2-6.8-6.3-6.8-2.1 0-4.1.6-5.5 1.5l.7 2c1.2-.8 2.8-1.2 4.3-1.2 3.4 0 3.8 2.5 3.8 3.9v.3c-6.4 0-10 2.2-10 6.2 0 2.4 1.7 4.8 5.1 4.8 2.4 0 4.2-1.2 5.1-2.5h.1l.2 2.1h2.8c-.2-1.1-.3-2.6-.3-4v-6.3zm-2.9 4.6c0 .3-.1.7-.2 1-.5 1.4-1.9 2.8-4 2.8-1.6 0-2.9-.9-2.9-2.9 0-3.2 3.8-3.8 7.1-3.8v2.9zM132.9 16.7c-2.2-.8-3.2-1.4-3.2-2.8 0-1.2 1-2.3 2.8-2.3 1.6 0 2.8.6 3.4 1l.8-2.2c-.9-.6-2.4-1-4.1-1-3.6 0-5.8 2.2-5.8 4.9 0 2 1.4 3.7 4.4 4.7 2.2.8 3.1 1.6 3.1 3.1 0 1.4-1 2.5-3.2 2.5-1.5 0-3.1-.6-4-1.2l-.8 2.3c1.2.7 2.9 1.1 4.7 1.1 4 0 6.2-2.1 6.2-5 .1-2.5-1.4-4-4.3-5.1zM149.2 12.1V9.7h-4.3V4.9l-3 .8v4h-2.6V12h2.6v9.1c0 2 .3 3.4 1.2 4.3.7.8 1.9 1.3 3.3 1.3 1.2 0 2.1-.2 2.7-.4L149 24c-.4.1-1 .2-1.8.2-1.7 0-2.3-1.2-2.3-3.2v-9h4.3z"/></svg>
