<svg xmlns="http://www.w3.org/2000/svg" viewBox="0, 0, 377, 261" width="377" height="261"><path fill-rule="evenodd" fill="#F9F9F9" d="M373.756 124.418l-16.327-44.023h-54.57l-16.327 44.023h-3.236L328.894 1.362h2.648l45.45 123.056h-3.236zM330.218 6.388l-26.182 70.541h52.07L330.218 6.388zm-125.76-5.026h67.22v3.466H207.4V59.77h56.335v3.466H207.4v57.715h65.602v3.467h-68.544V1.362zm-29.859 62.654c-2.353 3.41-5.173 6.183-8.458 8.32-3.286 2.139-6.89 3.379-10.811 3.726l26.476 48.356h-3.53L151.8 76.062h-38.831v48.356h-2.942V1.362h42.509c4.215 0 8.138 1.07 11.767 3.206 3.626 2.14 6.741 4.97 9.34 8.493 2.597 3.526 4.633 7.512 6.104 11.959a43.078 43.078 0 0 1 2.206 13.605c0 4.739-.638 9.303-1.912 13.692-1.275 4.393-3.089 8.293-5.442 11.699zm2.353-38.043c-1.374-4.043-3.261-7.626-5.662-10.746-2.404-3.119-5.222-5.633-8.458-7.539-3.236-1.907-6.67-2.86-10.296-2.86h-39.567v67.768h40.596c3.921 0 7.451-.981 10.591-2.947 3.137-1.963 5.81-4.533 8.016-7.713 2.206-3.176 3.898-6.786 5.075-10.832a44.455 44.455 0 0 0 1.765-12.479c0-4.39-.687-8.606-2.06-12.652zm-160.546 78.08c4.166 5.489 9.046 9.852 14.635 13.085 5.589 3.236 11.62 4.853 18.092 4.853 3.431 0 6.961-.52 10.59-1.56 3.627-1.04 7.134-2.599 10.517-4.679 3.383-2.08 6.521-4.767 9.414-8.06 2.891-3.293 5.369-7.192 7.428-11.699l2.795.867c-1.765 4.623-4.169 8.726-7.208 12.306-3.04 3.582-6.423 6.586-10.149 9.012-3.728 2.427-7.674 4.246-11.84 5.46-4.17 1.213-8.214 1.82-12.135 1.82-7.061 0-13.583-1.847-19.563-5.547-5.983-3.696-11.105-8.519-15.371-14.472-4.266-5.949-7.6-12.709-10.002-20.278C1.205 77.595.005 69.882.005 62.023c0-7.393 1.103-14.732 3.31-22.011 2.206-7.28 5.391-13.836 9.56-19.672C17.042 14.507 22.19 9.768 28.32 6.128 34.447 2.488 41.434.669 49.28.669c9.315 0 17.21 2.513 23.682 7.539 6.471 5.026 11.275 11.469 14.414 19.325l-2.794 1.04c-2.06-4.506-4.438-8.319-7.134-11.439-2.698-3.12-5.64-5.633-8.826-7.54-3.187-1.906-6.472-3.293-9.855-4.159-3.383-.867-6.743-1.3-10.075-1.3-7.258 0-13.73 1.706-19.416 5.113-5.688 3.409-10.494 7.886-14.415 13.432-3.923 5.546-6.89 11.815-8.899 18.805-2.011 6.992-3.015 14.012-3.015 21.058 0 7.859 1.2 15.369 3.604 22.531 2.401 7.166 5.686 13.492 9.855 18.979zM376.994 257.534V261H308.45V137.944h67.22v3.467h-64.278v54.941h56.335v3.467h-56.335v57.715h65.602zM242.408 261l-45.451-123.056h3.089l43.98 118.723 43.832-118.723h3.236L245.644 261h-3.236zm-65.747-123.056h2.941V261h-2.941V137.944zM119.444 261h-2.942V141.411H76.494v-3.467h82.958v3.467h-40.008V261z"/></svg>
